<?xml version="1.0" encoding="UTF-8"?>
<svg version="1.1" viewBox="0 0 2048 1275" width="1280" height="1280" xmlns="http://www.w3.org/2000/svg">
<path transform="translate(0)" d="m0 0h2048v1275h-2048z" fill="#FD342C"/>
<path transform="translate(0)" d="m0 0h238l4 6 4 13v7l-4 13-9 13-12 9-8 3h-10l-3 10-7 16-8 16-8 14-8 11-12 14-13 9-10 5-8 2h-14l-15-3-11 18-9 16-6 15-1 10 12 13 13 17 11 18 11 22 9 25 5 20 4 26 1 11v36l-3 27-11 69 29-16 25-14 3-2 5 1 20-9 15-7 20-9 35-15 27-11 24-9 17-6 14-6 15-10 19-11 16-8 16-6 14-3h26l20 3 12 3h5l2-6-12-11-10-13-8-14-8-18-5-21-1-7v-25l4-20 6-18 10-19 11-14 12-12 13-10 18-10 16-6 18-4 12-1h14l16 2 17 5 21 9 14 8 10 9 12 12 11 16 8 15 6 18 3 14 1 7v26l-3 15-6 18-9 19-10 14-10 11-11 9-15 10-19 9-13 4-26 4h-13l-16-2-2 6-16 33-1 5 5 2 6 7 3 8v9l-3 8-7 7-6 3-6 2 3 7 1 9-3 10-5 6-14 7 3 9v9l-3 8-7 7-11 4 1 5 2 9-1 8-4 8-10 7-7 2-9-1-5-1-10 19-9 8-9 4h-14l-10-4-10-9-4-9-1-4v-10l4-12 5-12-8-6-5-5-14 3-21 7-17 9-12 8-32 22-19 14-12 9-10 8-16 13-13 11-13 12-29 29h-2v2l-8 7-10 9-1 2-3 29-4 6-37 37-11 9-12 10-17 12-14 9-21 10-15 5-9 2h-20z" fill="#030205"/>
<path transform="translate(0,203)" d="m0 0 5 5 14 15 13 10 14 7h10l6-4 3-4 2-8 4 2 10 11 12 17 10 17 10 21 10 30 5 25 2 16 1 16v19l-2 23-7 47-6 36v4l6-2 17-9 23-13 13-7h2l-1 17-14 170-4 48-2 31-3 5-9 10-25 25-11 9-13 11-15 11-19 12-19 9-17 5-12 2h-10l-3-1z" fill="#FD342B"/>
<path transform="translate(1654,97)" d="m0 0h19l16 4 13 7 10 9 8 10 5 10 8-16 6-8 8-7 13-6 14-3h22l13 3 16 8 10 9 6 9 3 9v17l-3 10-8 11-9 6-4 2 9 3 10 7 7 8 4 8 2 7v18l-4 13-7 11-9 8-14 7-14 4-8 1h-20l-15-3-13-5-11-8-8-9-5-9v-2h-2l-2 5-9 12-11 9-13 6-11 3h-24l-12-3-16-8-10-9-8-11-6-11h-12v18l-1 21h-36l-1-40h-74v-29l13-18 12-17 13-18 12-17 13-18 10-14 1-1h37l1 1v102h6l-1-6v-19l2-19 4-15 6-14 8-11 10-10 12-7 12-4z" fill="#FFFEFA"/>
<path transform="translate(435,364)" d="m0 0h30l22 4 16 6 9 7 9 13 8 14 4 11 1 5v11l-3 10-5 4h-9l-10-5-4-3v-2h-2l-9-13-7-16-2-4-2-1-2 4-12 13-13 10-8 5-14 4-15 2 1 3 18-1-5 7-2 6v12l3 8-11 4-7 6-3 7-1 10 3 9v3l-10 4-7 5-4 9-1 11-6 2-17 4-15 6-16 9-11 8-24 16-12 9-17 12-16 13-14 11-13 11-8 7-10 9-7 7-8 7-21 21-8 7-3 3h-2l1-17 16-191 2-23 8-5 30-14 32-14 41-17 48-18 13-5 12-8 13-8 16-9 16-8 19-6z" fill="#E17F25"/>
<path transform="translate(570,158)" d="m0 0h27l15 3 14 5 17 9 13 11 10 10 9 13 8 16 4 13 3 17v20l-4 20-7 17-8 13-9 11-8 8-12 9-17 9-16 5-18 3h-21l-20-5-15-6-11-6-11-9-13-13-10-15-7-16-4-15-2-16 1-21 5-19 5-13 9-15 12-14 8-7 11-7 15-8 21-6z" fill="#5D8CF0"/>
<path transform="translate(73)" d="m0 0h15l2 4v9l-4 9-1 6 7 9 2 2 4-10 7-9 10-6 9-2h12l9 3 11 8 27 27 16 11-1 6-6 16-8 16-10 18-10 14-14 14-11 7-12 4h-16l-14-4-17-8-15-11-13-13-9-14-5-12-3-11v-5l8-8 12-16 6-11-1-7-1-11 4-13 9-10z" fill="#E17F25"/>
<path transform="translate(318,67)" d="m0 0h16l16 4 19 8 12 7 12 12 7 10 5 12 1 7v12l-2 13-5 14-9 13-8 8-10 7-15 8-21 8-17 9-12 9-2 3h-2v2l-10 6h-12l-10-4-5-6v-11l6-12 4-5 14-9 21-10 18-8 13-7 7-8 6-10 2-9-1-8-5-10-7-6-13-5-18-5-11-6-3-3-2-4v-11l4-6 7-6z" fill="#FFE483"/>
<path transform="translate(30,84)" d="m0 0 2 2 6 18 8 14 11 13 9 8 13 8 13 7 1 2-13 21-8 16-5 12-4 23-3 5-4 3-6 1-10-4-11-7-14-13-11-14-4-5v-88l6-4 19-14z" fill="#E17F25"/>
<path transform="translate(110,1147)" d="m0 0h13l9 2 6 4 4 7v7l-3 6-4 2 8 8 2 3v4l9-5 17-4 4-2-2-4-1-1h-8l-3 4h-14l1-6 3-5 7-4 4-1h13l8 3 5 5 2 6v28h3v-57h13l1 1 1 30 15-15 2-1h14v3l-9 8-7 8-2 3 12 15 9 12v1h-16l-11-13-3-4-3 1-1 2-1 14h-26l-5-2-6 4-3 1h-12l-7-4-3-4v-4h-2l-2 4-10 5h-40v-64z" fill="#FFFDF9"/>
<path transform="translate(1657,129)" d="m0 0h13l9 4 5 5 5 8 4 11 3 18v22l-3 19-5 13-6 8-8 5-3 1h-15l-10-5-7-8-5-13-2-9-1-9v-27l3-17 5-12 7-9 7-4z" fill="#FD342B"/>
<path transform="translate(1778,129)" d="m0 0h14l9 4 6 7 1 3v11l-4 8-6 5-7 3-9 1h-11l1 23 23 3 9 4 7 6 3 6v14l-4 8-8 6-10 3h-13l-11-4-8-7-5-11-1-6-23-1 2-21-1-24-1-14 28-1 2-10 5-10 8-5z" fill="#FD352B"/>
<path transform="translate(414,1162)" d="m0 0 8 1 4 3h2l1-3 2-1h11l1 1 1 12 7-8 8-4 5-1h7l10 4 8 9 3 10v7l-3 10-4 6-5 4-8 3h-11l-10-4-6-7-1-2-1 14-3 8-7 6-5 2h-19l-8-4-4-4 1-4 7-4 4 3 4 1h8l5-3 2-7-3 1-7 2-9-1-7-4-5-6-4-13 2-12 5-8 5-4z" fill="#FFFDF8"/>
<path transform="translate(411,521)" d="m0 0 10 1 18 8 39 19 8 4 6 7 2 4v11l-4 6-7 6-4 1h-8l-13-5-16-8-34-16-6-4-5-6-2-7 1-8 4-7 8-5z" fill="#E17F25"/>
<path transform="translate(445,445)" d="m0 0h13l20 9 16 8 29 14 6 7 2 5v9l-4 7-7 6-4 1h-10l-28-13-37-18-7-8-2-7 1-9 4-6z" fill="#E17F25"/>
<path transform="translate(429,483)" d="m0 0h7l13 5 52 25 6 4 5 7 1 8-3 9-8 7-6 2-9-1-28-13-36-17-5-5-4-7v-11l4-6 8-6z" fill="#E17F25"/>
<path transform="translate(308,1150)" d="m0 0h14v12l10 1v10h-10l1 27 8 1-2-9v-8l3-9 5-7 9-5 5-1h7l9 3 6 5 5 9 1 4v11l-4 11-7 7-8 3h-12l-7-3-8-6-1 6h-17l-5-3-2-3-1-5v-28h-7l-1-5 1-5 7-1v-11z" fill="#FFFDF8"/>
<path transform="translate(0)" d="m0 0h34l-2 6-5 11-4 13-2 10v24l4 16-1 4-8 7-14 10h-2z" fill="#FD342B"/>
<path transform="translate(409,565)" d="m0 0 6 1 34 16 10 5-3 9-7 13-9 7-8 3h-8l-10-3-8-7-4-6-2-7v-9l3-10z" fill="#FDDE7D"/>
<path transform="translate(481,412)" d="m0 0 3 3 8 16 8 10 13 9 11 2 7-2 4-5 3-9 5 2 6 9 1 8-3 8-8 7-5 2h-8l-12-5-38-18-16-8-5-5 5-5 10-8z" fill="#E17F25"/>
<path transform="translate(259,1162)" d="m0 0h7l9 3 6 5 4 8 1 5v9h-34l3 8 5 4h6l7-5h11l1 2-6 9-6 4-4 1h-13l-8-3-7-8-3-7v-17l5-10 8-6z" fill="#FFFDF5"/>
<path transform="translate(1370,580)" d="m0 0h9l8 4 3 2v-6h6v47l-3 6-6 5-6 2h-9l-10-4-3-3 1-3 5 1 8 3h7l7-4 2-5 1-9-6 4-4 2h-10l-9-5-4-7-1-3v-11l3-8 7-6z" fill="#030205"/>
<path transform="translate(1266,580)" d="m0 0h6v6l7-4 4-2h8l8 4 5 6 2 6v12l-4 8-7 5-3 1h-9l-8-4-3-2 1 3v18l-5 1-2-1z" fill="#030205"/>
<path transform="translate(1116,447)" d="m0 0 5 1v59l-4 1-3-2 1-5-10 6h-9l-8-4-5-6-2-7v-8l3-8 5-6 6-3h9l8 4 3 2-1-23z" fill="#030205"/>
<path transform="translate(245,252)" d="m0 0h12l6 3 7 8 2 5v7l-4 10-5 6-9 4h-9l-8-4-6-7-2-4v-12l3-6 5-6z" fill="#FFE483"/>
<path transform="translate(81,288)" d="m0 0h4l-1 9-8 36-9 35-11 37-12 36-11 30-14 35-12 27-6 11h-1v-11l8-16 14-34 13-34 10-29 9-28 12-43 8-32 6-28z" fill="#030205"/>
<path transform="translate(1549,147)" d="m0 0h2v52l-1 4h-40l6-9 13-18 12-17z" fill="#FC372B"/>
<path transform="translate(1396,465)" d="m0 0h12l8 3 3 5 1 4 1 23 2 4v3h-6l-3-3-2-3-5 4-9 3-9-3-5-5-1-7 4-6 5-3 14-3 7-2-2-6-3-2h-10l-5 3-3 2-4-1 2-5z" fill="#030205"/>
<path transform="translate(1325,580)" d="m0 0h11l8 3 4 7 1 24 3 8-4 1-5-2-1-6-8 6-5 2-8-1-6-4-3-4-1-5 3-6 6-4 19-4h3l-3-8-2-1h-10l-6 3-2 2h-4l1-5 6-5z" fill="#030205"/>
<path transform="translate(755,580)" d="m0 0h11l8 3 4 6 1 10v13l2 6-1 5-6-2-3-5-7 5-9 2-9-4-4-6v-6l4-6 7-3 16-3h3l-2-7-3-2h-10l-7 4-4 1-1-4 6-5z" fill="#030205"/>
<path transform="translate(505,363)" d="m0 0 4 2 11 7 17 8 18 6-1 5-13 27-2 4-2-1-6-16-9-15-7-9-7-7-5-4 1-5z" fill="#FBD877"/>
<path transform="translate(1418,580)" d="m0 0h10l8 4 5 8 1 10-2 1h-31l4 9 5 4 8 1 10-5h4l-1 4-7 5-3 1h-10l-9-4-5-6-2-7v-9l5-10 7-5z" fill="#030205"/>
<path transform="translate(1488,465)" d="m0 0h10l8 4 5 8 1 10-2 1h-31l4 9 5 4 8 1 10-5h4l-1 4-7 5-3 1h-10l-9-4-4-5-3-9v-7l4-10 6-5z" fill="#030205"/>
<path transform="translate(887,580)" d="m0 0h9l8 3 5 6 2 6v7l-1 1h-32l5 10 4 3 9 1 8-5h4l-1 4-6 5-9 2-11-4-7-8-2-7v-7l3-8 5-6z" fill="#030205"/>
<path transform="translate(690,447)" d="m0 0h7l10 3 6 7 1 5-5 1-6-7-4-2h-9l-6 3-3 4 1 6 4 4 20 5 6 4 3 4 1 3v8l-4 6-5 4-9 3-10-1-8-4-6-7-1-6h6l5 8 6 3h10l6-4 2-2v-9l-3-3-23-7-6-5-2-4v-7l3-6 5-4z" fill="#030205"/>
<path transform="translate(1142,562)" d="m0 0 5 1 1 7-1 17 9-6 3-1h9l7 4 3 6 1 16v15l-1 2h-5l-1-1-1-29-3-5-4-2-7 1-6 4-2 2-1 5v24l-4 1-3-1v-59z" fill="#030205"/>
<path transform="translate(1340,447)" d="m0 0h5l1 9-1 16 11-7h10l7 4 3 6v33h-5l-2-4v-26l-3-5-4-2-7 1-8 5-1 29-1 1h-6v-59z" fill="#030205"/>
<path transform="translate(1374,585)" d="m0 0h6l6 4 3 4 1 3v11l-4 6-5 4-6 1-7-3-4-5-2-6v-7l3-7 5-4z" fill="#FE342C"/>
<path transform="translate(1283,585)" d="m0 0h7l6 4 3 4 1 3v11l-4 6-5 4h-9l-7-5-3-6v-11l3-5 5-4z" fill="#FE342C"/>
<path transform="translate(1098,470)" d="m0 0h7l8 6 2 5v11l-4 6-6 4h-9l-6-5-3-6v-9l3-7 5-4z" fill="#FE342C"/>
<path transform="translate(740,470)" d="m0 0 8 1 5 4 3 7v10l-4 6-5 4h-9l-6-4-4-8v-9l3-6 5-4z" fill="#FE342C"/>
<path transform="translate(1260,470)" d="m0 0h7l6 4 3 5 1 4v8l-3 6-5 4-2 1h-8l-6-4-4-8v-8l3-7 5-4z" fill="#FE342C"/>
<path transform="translate(985,470)" d="m0 0 8 1 6 5 2 6v10l-4 6-5 4h-9l-6-4-4-7v-10l3-6 5-4z" fill="#FE342C"/>
<path transform="translate(1063,585)" d="m0 0h6l6 4 3 4 1 3v11l-3 5-6 5h-9l-8-7-2-6 1-10 4-6z" fill="#FE342C"/>
<path transform="translate(1017,464)" d="m0 0 3 2 1 28 3 5 3 2h7l6-4 4-6v-25l1-1h5l1 1v40l-1 1h-6l1-7-9 6-7 2-9-3-5-6-1-2-1-10v-21z" fill="#030205"/>
<path transform="translate(913,447)" d="m0 0h6l7 10 10 18h2l14-25 3-3h5l-1 5-10 18-7 12-1 4v20l-2 2-5-1-1-4v-19l-9-17-8-13-3-5z" fill="#030205"/>
<path transform="translate(1198,465)" d="m0 0h6l-1 8 10-7 2-1h10l6 4 3 4 1 4v30l-4 1-3-1v-27l-3-7-5-2-7 1-7 5-1 2-1 28-5 1-2-2z" fill="#030205"/>
<path transform="translate(1144,465)" d="m0 0h9l8 4 5 6 2 6v11l-4 8-6 5-5 2h-9l-8-4-6-7-1-3v-13l4-8 6-5zm1 5-7 4-3 5-1 9 3 8 7 6h9l8-7 1-3v-11l-3-6-5-4-2-1z" fill="#030205"/>
<path transform="translate(1258,465)" d="m0 0h9l7 3 5 5 3 6 1 10-3 9-4 5-8 4h-9l-9-4-4-5-3-8v-8l4-9 5-5zm2 5-6 3-4 5-1 4v8l4 8 6 4h8l6-4 3-4 1-3v-8l-3-8-5-4-2-1z" fill="#030205"/>
<path transform="translate(866,464)" d="m0 0h3l-1 7-13 33-7 14-5 4-2 1h-6l-1-4 9-4 3-5-1-7-15-36v-2h6l4 8 9 24v2h2l1-5 11-28z" fill="#030205"/>
<path transform="translate(1061,580)" d="m0 0h9l8 4 6 8 1 4v11l-4 8-6 5-5 2h-9l-8-4-5-6-2-5v-11l3-8 7-6zm2 5-8 4-3 5-1 10 3 7 7 6h9l8-7 1-3v-11l-3-6-5-4-2-1z" fill="#030205"/>
<path transform="translate(983,465)" d="m0 0h9l8 4 4 5 2 4 1 11-2 8-6 7-7 3h-9l-7-3-7-8-2-7 1-10 5-8 5-4zm2 5-7 3-3 3-2 5v10l5 8 5 3h9l7-6 2-4v-10l-3-7-5-4z" fill="#030205"/>
<path transform="translate(737,465)" d="m0 0h9l8 3 5 6 2 4 1 10-2 8-4 6-6 4-3 1h-9l-7-3-7-8-2-6v-8l5-10 6-5zm3 5-7 3-4 5-1 3v9l4 8 6 4h9l7-6 2-4v-10l-4-8-4-3z" fill="#030205"/>
<path transform="translate(928,580)" d="m0 0h11l8 4 4 5-1 2-5-1-6-4h-8l-5 2-1 1v5l7 3 16 5 3 4 1 4-2 6-6 5-3 1h-11l-9-4-4-5v-3h5l5 5 6 2 7-1 5-4-1-5-8-3-12-4-5-4-1-6 3-6z" fill="#030205"/>
<path transform="translate(968,580)" d="m0 0h10l10 5 2 5-3 1-8-5h-9l-5 3-1 3 4 4 19 6 4 4v8l-4 5-7 3h-11l-9-4-3-5 1-4 5 2 5 5 9 1 7-4v-6l-18-6-6-4-2-2v-6l4-6z" fill="#030205"/>
<path transform="translate(1213,580)" d="m0 0h10l10 5 2 5-3 1-8-5h-9l-5 3-1 4 4 3 19 6 4 4v8l-4 5-7 3h-11l-9-4-3-4 1-5 4 2 6 5 9 1 6-3 1-1v-6l-22-8-4-4v-7l5-6z" fill="#030205"/>
<path transform="translate(351,1174)" d="m0 0h6l4 2 3 5 1 4v8l-4 8-3 2h-8l-5-5-2-7 1-9 3-5z" fill="#FC362B"/>
<path transform="translate(801,580)" d="m0 0h10l8 4 4 6v3l-6-1-5-5-2-1h-7l-6 3h-2l-2 7v10l3 6 5 4 7 1 6-3 5-5 4 1-1 5-8 6-8 2-10-3-7-6-3-8v-9l3-8 4-5z" fill="#030205"/>
<path transform="translate(464,1174)" d="m0 0h6l5 4 2 4v13l-4 6-2 2h-9l-5-6-1-4v-10l3-6z" fill="#FC372B"/>
<path transform="translate(1430,464)" d="m0 0 5 3 13 32 6-13 8-20 2-2 4 1-2 9-13 32-2 2-7-1-11-28-5-12v-2z" fill="#030205"/>
<path transform="translate(844,580)" d="m0 0h10l8 4 4 5v4l-5-1-5-5-3-1h-7l-7 4-3 7v9l4 7 8 4 6-1 4-3h2l1-3 4-1 1 5-8 7-6 2-7-1-8-4-6-7-2-7 1-10 5-8 5-4z" fill="#030205"/>
<path transform="translate(623,239)" d="m0 0 3 1-1 3-42 13-59 18-17 5h-5v-3l25-8 69-21z" fill="#030205"/>
<path transform="translate(1120,569)" d="m0 0 5 1v9l8 1v5l-7 1v29l8 3-2 4h-9l-4-3-1-3-1-30-6-2 1-4 5-1 1-8z" fill="#030205"/>
<path transform="translate(1295,454)" d="m0 0h4l1 2v8l8 1-1 5-6 1-1 30 8 1v4l-1 1h-9l-4-3-1-3v-28l-1-2-6-2 1-4h6v-10z" fill="#030205"/>
<path transform="translate(415,1174)" d="m0 0h7l5 4 2 5v10l-4 6-4 2-8-1-3-4-1-3v-12l4-6z" fill="#FC382B"/>
<path transform="translate(1025,569)" d="m0 0 5 1v9l8 1 1 4-1 1-7 1v29l8 3-1 4h-10l-4-4-1-32-6-1-1-4 7-2 1-9z" fill="#030205"/>
<path transform="translate(802,465)" d="m0 0h5v7l9-6 2-1h8l-1 5-9 3-6 4-2 4v25l-2 2-5-1v-41z" fill="#030205"/>
<path transform="translate(770,465)" d="m0 0h5v7l9-6 2-1h7l1 3-3 3-8 2-6 5-1 3-1 26-4 1-3-2 1-40z" fill="#030205"/>
<path transform="translate(107,1184)" d="m0 0h18l4 4 1 7-5 5h-18z" fill="#FD352B"/>
<path transform="translate(1406,485)" d="m0 0h7l1 1-1 9-7 6-5 2-7-1-4-4-1-6 5-4z" fill="#FD342B"/>
<path transform="translate(1335,600)" d="m0 0h7v9l-5 5-7 4-8-1-4-4v-6l4-4z" fill="#FE342C"/>
<path transform="translate(765,600)" d="m0 0h7v10l-9 7-7 1-6-3-2-3v-5l4-4z" fill="#FE342C"/>
<path transform="translate(605,274)" d="m0 0h3l-1 5-64 19h-7l1-3 35-11z" fill="#030205"/>
<path transform="translate(1419,585)" d="m0 0h9l5 3 3 6v4h-26l-1-3 3-6 4-3z" fill="#FE342C"/>
<path transform="translate(1489,470)" d="m0 0h9l5 3 3 6v4h-26l-1-3 3-6 4-3z" fill="#FE342C"/>
<path transform="translate(888,585)" d="m0 0h9l5 3 3 6v4h-25l-2-1 2-6 5-5z" fill="#FE342C"/>
<path transform="translate(1188,580)" d="m0 0h6v42l-4 1-3-2z" fill="#030205"/>
<path transform="translate(108,1159)" d="m0 0 16 1 1 1v8l-3 3h-15v-12z" fill="#FD362B"/>
<path transform="translate(173,1190)" d="m0 0 3 1-1 9-8 5h-5l-3-4v-5l3-3z" fill="#FA3B2B"/>
<path transform="translate(259,1173)" d="m0 0h7l5 5 2 5h-21l2-6z" fill="#FC362B"/>
<path transform="translate(148,83)" d="m0 0h3l-2 9-5 15-2 3h-6l-4-3 1-3 7 1 3-11 4-10z" fill="#030205"/>
<path transform="translate(878,499)" d="m0 0h5l1 13-3 6-4 1v-3l2-6-3-4v-5z" fill="#030205"/>
<path transform="translate(658,258)" d="m0 0h2v4l-22 7-5-1v-2z" fill="#030205"/>
<path transform="translate(113,113)" d="m0 0 6 1 8 11 3 7-4 1-7-11-6-7z" fill="#030205"/>
<path transform="translate(135,68)" d="m0 0 5 1 2 3-1 5-3 3h-5l-2-5 3-6z" fill="#030205"/>
<path transform="translate(162,82)" d="m0 0h5l2 5-3 6-4 1-4-3 1-6z" fill="#030205"/>
<path transform="translate(168,65)" d="m0 0 5 3 8 9 1 5-4-1-12-13z" fill="#030205"/>
<path transform="translate(129,53)" d="m0 0h13l5 2v3l-21-1v-3z" fill="#030205"/>
<path transform="translate(1189,562)" d="m0 0 5 1v4l-5 1-2-4z" fill="#030205"/>
</svg>
