<?xml version="1.0" encoding="UTF-8"?>
<svg version="1.1" viewBox="0 0 2048 1365" width="1280" height="1280" xmlns="http://www.w3.org/2000/svg">
<path transform="translate(0)" d="m0 0h2048v1365h-2048z" fill="#FCFCFC"/>
<path transform="translate(1233,254)" d="m0 0h18l17 4 14 7 11 9 9 10 8 14 4 8 11 13 5 8 2 2 1 4-15 10-8 7-3-3-7-12-7-8-11-7h-2l-6 8-9 6-14 4-21 5-10 5-5 4-4 7-6 26-4 6-5 5-10 7-14 8-10 9-4 11v15l1 9 1 20 1 13-3 20-4 19-1 7v14l3 11 6 10 8 7 19 11 5 3 10-3 9-3h11l12 6 3-21 16-4 16-8 12-11 7-10 8-16 6-20 5-28 5-42 2-17 13 1 11 3v24l3 11 4 8 5 6 8 5 11 3h12l-12-5-11-10-7-12-4-13-2-14h2l3 17 5 13 7 10 7 6 8 4 7 2h9l18-6 4 1 18 44 16 39 8 20-1 2-90 19h-2l-2 14-18 103 17-4 77-21 74-20 11-7 11-10 9-13 6-12 4-14 1-8v-12l-3-15-5-12-12-19-16-26-12-19-15-24-2-5 15-30-16 2-13 4-2-1 6-3 12-3 14-1 25-50 10-19 8-15 2-1 185-18h12l1 1 13 131v9l1 2 22 224v10l8-7 1-1v-25l4-16 6-12 9-11 11-9 15-7 13-3h15l1 1 1 14-2 15-5 15-8 16-11 12-10 7-10 4-11 2-17-1-8 8v10l7 72 18-1 61-6h12l5 49 4 41v6l-83 8-7 1 4 44 6 62v10l-18 4-13 1h-17l-19-2-20-5-16-6-17-9 9 6 15 7 19 6 16 3 9 1h23l20-3 10-2 4 42-1 1-132 13-62 6-1-1-15-152v-7l-295 29-14 1-2-9-8-58v-8l29-58 10-19 33-66-4 4-11 22-5 6-9 5-4 1h-14l-11-4-10-7-5-4-9 3-20 8h-2v42l-3 37-6 35-4 16-2 7-7 21-10 23-10 18-10 15-9 11-9 10-15 15-13 10-15 10-21 11-21 8-26 7-28 4-22 1h-12l-29-1-11 1h-47l-24-3-26-6-20-7-25-12-14-9-16-12-17-16-9-10-10-13-10-15-14-27-10-26-7-25-6-29-4-33-1-11-1-23-1-105v-103l3-36 5-30 6-25 8-24 9-21 9-17 10-15 9-12 9-10 7-8 12-11 13-10 14-9 19-10 21-8 21-6 22-4 18-2h63l15-1h27l23 2 18 3 20 5 14 5 1-11 5-8 8-7 13-5 27-5 10-4 13-10 9-9 10-7 18-6z" fill="#1A2D35"/>
<path transform="translate(429,330)" d="m0 0 49 2 134 6 17 1v21l-5 117-1 4v20l-13 296v6l37 2 46 2 7 1v24l-3 68-1 4h-21l-69-3-1 11-4 93-1 12-5 1h-27l-20-3-18-5-21-9-18-11-9-7 5 5 13 9 19 10 16 6 23 5 9 1h33l-1 29-1 13-33-1-162-7-1-1v-16l6-137 1-7-73-3-233-10-4-1v-74l14-20 16-23 11-16 14-20 11-16 12-17 16-23 14-20 11-16 14-20 16-23 14-20 80-115 14-20 64-92z" fill="#FD4F59"/>
<path transform="translate(1006,313)" d="m0 0h27l23 2 18 3 20 5 12 4 1 1-1 11-2 7-13 5-8 7-5 14-1 8-5 7-1 3h-2l-1 7-2 12-1 8-3 1-15-5h-6l-4 2-3-1 4-2-4-1h-31l-17 3-1 1 13 5 11 6 10 8 8 7-2 4v1l4-2 8 10 4 6-2 5-5 10-2 10v15l2 8 8 17 5 6 2 1v2l8 4 7 5 1 6-10-2-18-5-6-1h-19l-16 4-16 8-13 9-17 13-11 9-13 11-11 9-11 10-8 7-30 27 2 4 16 16 7 8 18 18 7 8 14 14 7 8 1 4-14 14-11 48-1 6 5 2 18 14 18 13 21 16 18 13 21 16 14 10 21 16 15 11 7-1 32-16 14-8 8-4 9-3 11-3 13 1 6-2h17l6 4 7 8 4-2 12-11 9-9 10-13 4-9 4-16 4-26 4-35 12-5h2v41l-3 37-6 35-4 16-2 7-7 21-10 23-10 18-10 15-9 11-9 10-15 15-13 10-15 10-21 11-21 8-26 7-28 4-22 1h-12l-29-1-11 1h-47l-24-3-26-6-20-7-25-12-14-9-16-12-17-16-9-10-10-13-10-15-14-27-10-26-7-25-6-29-4-33-1-11-1-23-1-105v-103l3-36 5-30 6-25 8-24 9-21 9-17 10-15 9-12 9-10 7-8 12-11 13-10 14-9 19-10 21-8 21-6 22-4 18-2h63z" fill="#FD4E58"/>
<path transform="translate(1737,332)" d="m0 0h12l1 1 13 131v9l1 2 22 224v10l8-7 1-1v-25l4-16 6-12 9-11 11-9 15-7 13-3h15l1 1 1 14-2 15-5 15-8 16-11 12-10 7-10 4-11 2-17-1-8 8v10l7 72 18-1 61-6h12l5 49 4 41v6l-83 8-7 1 4 44 6 62v10l-18 4-13 1h-17l-19-2-20-5-16-6-17-9 9 6 15 7 19 6 16 3 9 1h23l20-3 10-2 4 42-1 1-132 13-62 6-1-1-15-152v-7l-225 22h-8l-2-11-8-57v-6l10-20 10-19 40-80 5-1 15 6 4 1h19l12-5 4-2 6-15v-10l-2-3v-3l-3-1-5-6-4-4-1-2v-10h2v-2h10l16 8 16 5 6 2h24l18-4 15-6 4-2 6 58 6 62v8l71-7h5l-10-101-7-74-8-80-3-32-1-5-3-1-1 6-7 18-8 15-7 14-4 5-3-25-4-12v-3h-12l-25-3 2-4 5-3 5-6 2-1 1-3h2l2-6 4-9 3-13 1-11-5 3-4 4h-2v2l-7 4-8 4-13 4-8 1-1-3 12-23 2-5 7-5 4-7 2-13 26-52 1-3h2l1-5 15-29 2-6z" fill="#FD4F59"/>
<path transform="translate(742,329)" d="m0 0h35l18 2 22 5 10 3v2h5l-5 4-11 7-13 10-10 9-8 7-9 10-10 13-10 15-10 18-8 18-8 22-7 27-5 28-3 28-1 15v103l1 105 1 23 3 30 5 30 8 32 9 25 14 29 11 17 9 12 10 11 7 8 12 11 19 14 18 10 17 8 24 8 22 5 24 3h47l19-1 21 1h12l22-1 28-4 26-7 16-6 21-10 16-10 13-10 12-11 13-13 11-14 10-15 10-18 10-23 9-27-2-1h3l1-8 5-24 3-19 3-37 1-42 29-12 5 2 7 6 12 6 4 1h14l10-4 5-5 5-8 9-17 5-5-2 6-40 80-10 19-20 40 1 16 8 57v2l2-1 133-13 25-2-2 1-1 6-10 23-4 7-3 7-11 19-10 15-11 14-11 13-8 9h-2l-2 4-15 14-11 9-13 10-9 6h-3v2l-3 2h-3v2l-21 12-22 11-27 11-22 7-30 8-27 5-28 3-27 2h-21l-20-1h-10l-39-3-39-4-42-6-40-7-8-2-31-7-30-8-16-5-9-3-24-9-14-7-10-4-9-5-16-9-11-7-3-2-3 5-6 12-7 8-9 6-2-2-5-17-1-5v-30l-5-2-28-21v-2l-5-2-7-7-11-9-15-15-7-8-4-6-5-4-7-9v-2h-2v-12l1-23 1-11 2-1 89 4 4-96-53-2-37-2-1-1 2-49 11-253v-21l1-3 5-117h1v9l19-12 16-8 20-8 20-6 19-4z" fill="#FBDBDF"/>
<path transform="translate(1012,540)" d="m0 0h19l17 4 36 10 10 3 7 3 5 11 6 12v2h2l4 6 9 8 10 4 6 1 23 1 13 5 13 9 13 10 16 8 10 2 9-1 19 57 13 27 10 14 6 8-10 5-32 13h-2l-1 16-3 25-3 20-5 19-6 10-11 13-14 14-6 5-3-1-7-8-5-3h-17l-9 2-10-1-13 4-11 4-17 9-8 5-23 11-5 2-5-1-19-14-21-16-14-10-21-16-14-10-21-16-14-10-21-16-5-3 1-10 10-44 14-14-1-4-2-4-4-2-7-8-14-14-7-8-18-18-7-8-12-12 2-4 15-14 20-18 11-9 11-10 11-9 17-14 19-14 14-9 11-5z" fill="#375962"/>
<path transform="translate(928,314)" d="m0 0h44l7 1v1l-28 6-16 5-25 10-19 11-14 10-5 4h-4v3l-14 14-4 2-2 4-12 15-10 15-9 16-10 22-9 27-6 24-4 23-3 27-1 13v149h23l-6 7-14 14-1 2h-2l-2 5-6 10-4 13-1 6v18l4 18 8 16 7 9v2h2l5 5 7 6 14 8 29 15 45 23 68 35 60 31h15l25-4 19-5 29-11 10-4 9 16 5 3-2 4-9 10-11 11-15 10-14 7-20 6-7 1h-29l-15-3-24-8-50-23-19-7-19-5-17-2h-9l-15 2-6 2 14-3h22l17 3 20 6 25 11 27 13 23 9 19 5 16 2h11l21-3 18-6 17-9 12-9 7-6 7-8 8-10 8-4 4-4h2l5 8 4 3 7 1 7-4 2-3 10 2 8-2 1-4v-14l-4-18h6l5-6v-8l-2-10 9-4 13-3h13 1-18l-14 4-6 1-2-5 16-15 8-8 10-13 4-9 4-16 4-26 4-35 12-5h2v41l-3 37-6 35-4 16-2 7-7 21-10 23-10 18-10 15-9 11-9 10-15 15-13 10-15 10-21 11-21 8-26 7-28 4-22 1h-12l-29-1-11 1h-47l-24-3-26-6-20-7-25-12-14-9-16-12-17-16-9-10-10-13-10-15-14-27-10-26-7-25-6-29-4-33-1-11-1-23-1-105v-103l3-36 5-30 6-25 8-24 9-21 9-17 10-15 9-12 9-10 7-8 12-11 13-10 14-9 19-10 21-8 21-6 22-4z" fill="#A32B33"/>
<path transform="translate(1317,309)" d="m0 0 6 4v2h2v2h2l3 4v2h2l5 8v2l7 2 5 2 9-1 8 3 5-1 5-3h8l4 3 6-1 3-1h8l8 4 7 7 7 9 8 11 16 34 9 17 1 4h2l5 9 5 8 4 3 13-4 5-1h11l-2 6-12 24 2 5 12 19 16 26 15 24 13 21 5 13 2 12v12l-3 16-6 15-8 12-10 11-11 8-5 3-166 45-3-1 20-114 1-3 16-4 76-16-6-16-18-44-16-39-2-5-5 1-16 5h-9l-12-4-9-7-6-7-6-12-4-16v-7l-1 1 3 17 5 13 7 10 8 7 13 6v1h-13l-13-4-9-7-6-9-3-9-1-5v-21l1-3-8-1-16-3-2 27-5 39-6 29-7 19-8 14-12 13-10 7-13 6-8 2h-6l-1 16-1 6-13-6h-11l-17 6-5-2-18-10-10-8-6-8-4-10-1-5v-14l4-22 3-15 1-14-1-8-1-20-1-9v-15l4-11 8-8 15-9 11-7 4-2 6-12 5-23 6-9 9-6 16-5 18-4 10-4 7-6 4-6 6 2 10 8 9 12 4 8 8-6 11-8 4-3-4-7-7-9-4-5z" fill="#FCBE9C"/>
<path transform="translate(1737,332)" d="m0 0h12l1 1 13 131v9l1 2 22 224v10l8-7 1-1v-25l4-16 6-12 9-11 11-9 15-7 13-3h15l1 1 1 14-2 15-5 15-8 16-11 12-10 7-10 4-11 2-17-1-21 21h-2l-2 4-14 14-5 6-28 28-1 2h-2l-2 4h-3l7-8 6-7h2l2-4 12-12 7-8 9-8-14 4-4 1-15 1-16-2-13-4-16-8-16-12h-1l-9-94-7-70-3-32-1-5-3-1-1 6-7 18-8 15-7 14-4 5-3-25-4-12v-3h-12l-25-3 2-4 5-3 5-6 2-1 1-3h2l2-6 4-9 3-13 1-11-5 3-4 4h-2v2l-7 4-8 4-13 4-8 1-1-3 12-23 2-5 7-5 4-7 2-13 26-52 1-3h2l1-5 15-29 2-6z" fill="#FD4E58"/>
<path transform="translate(868,653)" d="m0 0 7 6 9 9 7 8 18 18 7 8 14 14 7 8 1 4-14 14-11 48-1 6 5 2 18 14 18 13 21 16 18 13 21 16 14 10 21 16 15 11 7-1 32-16 14-8 8-4 9-3 11-3 13 1 6-2h17l6 4 8 9 2 4 6-1 14-4h18l7 2-3 1-5-1h-13l-16 4-5 2 2 10v8l-6 7h-5l4 17v14l-2 4-8 3-7-1-3-1-5 5-4 2-7-1-7-6-2-6-9 7-5 2-8 10-7 8-8 7-14 10-19 9-18 5-16 2h-11l-16-2-19-5-25-10-29-14-21-9-24-7-13-2h-22l-14 3-3-1 9-3 15-2 21 1 21 5 17 6 18 8 30 14 21 8 18 5 7 1h29l14-3 15-5 14-7 14-10 16-16 5-7-5-2-5-8-4-8-25 10-24 8-26 5-8 1h-15l-47-24-33-17-27-14-39-20-35-18-29-15-11-8-7-6v-2h-2l-9-13-7-14-4-18v-18l4-16 6-12 4-6h2l2-4 18-18h-24l3-2 6-1 19-1 10-10 2-3h2v-2h2l2-4 27-27 7-8z" fill="#FCBE9C"/>
<path transform="translate(1256,757)" d="m0 0h2v41l-3 37-6 35-4 16-2 7-7 21-10 23-10 18-10 15-9 11-9 10-15 15-13 10-15 10-21 11-21 8-26 7-28 4-22 1h-12l-21-1-27-4-23-6-19-7-13-6-5 1-6 1 2-2 5-1v-2l-5-2-16-10-14-11-13-12-2-2-6 1-15 6h-5l3-2 9-4 8-3h3l-9-11-10-13-11-17-6-11v-2l-14 5-4-1 14-6-1-6-10-25-7-24v-2l-20 8h-5v-2l9-3 11-4h3l-2-13-4-23v-7l1 2h2l5 5 7 6 14 8 29 15 45 23 68 35 60 31h15l25-4 19-5 29-11 10-4 9 16 5 3-2 4-9 10-11 11-15 10-14 7-20 6-7 1h-29l-15-3-24-8-50-23-19-7-19-5-17-2h-9l-15 2-6 2 14-3h22l17 3 20 6 25 11 27 13 23 9 19 5 16 2h11l21-3 18-6 17-9 12-9 7-6 7-8 8-10 8-4 4-4h2l5 8 4 3 7 1 7-4 2-3 10 2 8-2 1-4v-14l-4-18h6l5-6v-8l-2-10 9-4 13-3h13 1-18l-14 4-6 1-2-5 16-15 8-8 10-13 4-9 4-16 4-26 4-35z" fill="#FD4F58"/>
<path transform="translate(429,330)" d="m0 0 49 2 24 1 4 2-7 9-11 16-8 11-10 15-12 17-14 20-11 16-12 17-9 13h-2l-1 5h-2l-2 5-11 16-21 30-11 16-12 17-13 19-7 10-6 8-4 1 2 2-10 15-12 17-21 30-6 9h-2l-1 4-32 46-14 20-13 19-12 17-14 20-9 13-1 14-16 8-9 4 9-3 14-7h2v58l-72-3-4-1v-74l14-20 16-23 11-16 14-20 11-16 12-17 16-23 14-20 11-16 14-20 16-23 14-20 80-115 14-20 64-92z" fill="#A32B33"/>
<path transform="translate(506,334)" d="m0 0h16l90 4 17 1v21l-5 117-3 5-6 7-14 9-14 6-12 3-7 1h-19l-15-3-16-6-23-12-20-11-17-6-16-3h-9l-15 3-6 3h-2v-4l4-4 13-19 12-17 13-19 10-14 9-13 7-10-1-2 4-2 13-19 10-14z" fill="#FD4E58"/>
<path transform="translate(1737,332)" d="m0 0h12l1 1 13 131v11l-11 11-12 9-15 8-17 5-6 1h-23l-18-4-20-7-21-8-15-4-7-1 1-13-5 3-4 4h-2v2l-7 4-8 4-13 4-8 1-1-3 12-23 2-5 7-5 4-7 2-13 26-52 1-3h2l1-5 15-29 2-6z" fill="#FD4F59"/>
<path transform="translate(782,680)" d="m0 0h1l1 36h23l-6 7-14 14-1 2h-2l-2 5-6 10-4 13-1 6v18l4 18 8 16 6 8 5 31 1 4v9l-7 3-7 2-4 2h-5v2l10-3 12-5h3l9 29 10 24-1 5-12 5 10-3 6-1 10 18 10 15 11 13 5 6v2l-14 5-6 3 10-3 10-4 4 1 9 9 11 9 11 8 18 11v2l-4 2 5-2 5 1 21 9 19 6 19 4 15 2-2 2-11 1h-47l-24-3-26-6-20-7-25-12-14-9-16-12-17-16-9-10-10-13-10-15-14-27-10-26-7-25-6-29-4-33-1-11-1-23v-74l14-5 5-2 11-1v-4l14-3 7-2v-2h3v-2z" fill="#A32B33"/>
<path transform="translate(1679,902)" d="m0 0h6l4 35 4 41v10h-2l15 9 16 7 16 5 16 3 9 1h23l20-3 10-2 4 42-1 1-132 13-62 6-1-1-15-152v-8l38-4z" fill="#A32B33"/>
<path transform="translate(499,504)" d="m0 0 3 1v20l-1 10v15l-4 91-5 113-2 44-1 1-52-2-24-1 1-33 6-137v-9l4-2 1-4 26-36 9-12 14-19 13-4h3v-2l-8 3h-4l1-4 9-13z" fill="#A32B33"/>
<path transform="translate(409,892)" d="m0 0h22l43 2 11 1v17l-3 69h-3l11 9 10 7 19 10 16 6 23 5 9 1h33l-1 29-1 13-33-1-162-7-1-1v-16l6-137z" fill="#A42B34"/>
<path transform="translate(980,415)" d="m0 0 8 1 12 5 12 7 15 13-2 4v1l4-2 8 10 4 6-2 5-5 10-2 10v15l2 8 8 17 5 6 2 1v2l8 4 7 5 1 6-10-2-18-5-6-1h-19l-16 4-16 8-13 9-17 13-11 9-13 11-11 9-11 10h-1v-60l2-23 4-24 6-22 9-21 9-14 8-10 7-7 14-10 15-7z" fill="#FCFBFB"/>
<path transform="translate(1643,513)" d="m0 0 4 1 2 17 11 111 13 133 2 21v10l-15 2-51 5h-10l-12-120v-8l11-8 7-6 1-2h2l2-4 9-13 6-12 1-4-11 1-13-1-14-4 2-4 9-10 8-14 5-13 2-9 1-11h2l2-5 17-33z" fill="#A32B33"/>
<path transform="translate(1372,715)" d="m0 0h15l15 6 10 5v2l5 2 8 5 5 2-4 4-40 80-10 19-9 18 1 12 8 59-1 4-73 7h-2l-2-9-8-58v-8l29-58 10-19 34-68 6-4z" fill="#A22B33"/>
<path transform="translate(794,878)" d="m0 0h3l9 29 10 24-1 5-12 5 10-3 6-1 10 18 10 15 11 13 5 6v2l-14 5-6 3 10-3 10-4 4 1 9 9 11 9 11 8 18 11v2l-4 2 5-2 5 1 21 9 19 6 19 4 15 2-2 2-11 1h-47l-24-3-26-6-20-7-25-12-14-9-16-12-17-16-9-10-10-13-10-15-14-27-9-23 1-4 20-7 9-4 8-1v-2l10-3z" fill="#A22B33"/>
<path transform="translate(419,619)" d="m0 0h2l-2 50-5 117-1 9h-21l-90-4-6-1 2-5 10-13 10-14 14-19 26-36 14-19 11-15 26-36z" fill="#FCFBFA"/>
<path transform="translate(1624,343)" d="m0 0 2 2-19 38-2 2-3 8-10 19-13 26-2 13-6 9-4 3h-2l-1 5-8 16-4 7v3h-16l-14-3-10-4-12-7h-2l-7-11 2-6 13-26-16 2-13 4-2-1 6-3 12-3 14-1 25-50 10-19 8-15 2-1z" fill="#9F2C34"/>
<path transform="translate(1586,685)" d="m0 0h1l6 58 6 62v8l-1 1-112 11-4-1 8-16 12-22 14-27 12-22 12-23 9-16 7-2 15-4 12-5z" fill="#FCFBFA"/>
<path transform="translate(937,445)" d="m0 0 2 4 8 15 8 16 11 21 9 16 4 6 3 5 9 12v2h2v4l-15 8-19 14-14 11-13 11-11 9-15 13-3 2v-60l2-23 4-24 6-22 9-21 9-14z" fill="#FCDBDE"/>
<path transform="translate(499,504)" d="m0 0 3 1v20l-1 10v15l-4 91-1 21h-1v-20l-22 10-16 6-6 3h-4v2l-25 9h-3v7h-1l1-34 1-28 4-2 1-4 26-36 9-12 14-19 13-4h3v-2l-8 3h-4l1-4 9-13z" fill="#A32B33"/>
<path transform="translate(1513,1081)" d="m0 0h13l13 4 11 7 7 7 6 10 3 10v19l-3 9-4 8-9 10-9 6-11 4-6 1h-10l-12-3-11-6-7-6-7-10-3-7-2-8v-15l4-13 7-11 9-8 10-5z" fill="#FCDCE0"/>
<path transform="translate(1372,715)" d="m0 0h15l15 6 10 5v2l5 2 8 5 5 2-4 4-24 48h-3l-14 9-6 2v2l-5 3h-3v2l-5 1v2l-6 3h-2v2l-5 1v2l-12 6-5 2v2l-5 1v2l-6 3-22 13h-3l2-6 17-34 10-19 34-68 6-4z" fill="#A42B33"/>
<path transform="translate(1679,902)" d="m0 0h6l4 35 1 13v11l-10 6h-2v2l-4 2h-3v2h-3v2l-5 1v2l-5 1v2l-3 3-8 3-2 4-11 2v2l-10 5-5 2-1 2-3-25-6-62v-8l38-4z" fill="#A22B33"/>
<path transform="translate(409,892)" d="m0 0h22l43 2 11 1v17l-1 27-1 1-1 14-9 4h-3v2l-7 3h-5v2l-12 5-9 3v2l-6 3-9 2-14 5h-2l-1 2v-18l3-70z" fill="#A22B33"/>
<path transform="translate(1694,991)" d="m0 0 5 2 15 8 24 8 16 3 9 1h23l20-3 10-2 4 42-1 1-112 11h-6l-1-1-6-61z" fill="#FE4F59"/>
<path transform="translate(482,985)" d="m0 0 4 2 14 10 19 10 16 6 23 5 9 1h33l-1 29-1 13-33-1-70-3-17-1 3-70z" fill="#FD4E58"/>
<path transform="translate(1113,586)" d="m0 0 5 5 9 8 10 4 6 1 23 1 13 5 13 9 13 10 16 8 9 3-4 22-6 12-5 5-8 4-6 1h-11l-11-2-12-6-13-11-11-12-14-21-8-16-6-16-2-10z" fill="#FCBE9C"/>
<path transform="translate(1643,513)" d="m0 0 4 1 2 17 11 111v9l-5 2-13 8h-3v2l-5 1v2l-5 1v2l-7 2v2l-7 2v2l-4 2h-3v2l-4 1-3 3-12 6-2 2v-8l11-8 7-6 1-2h2l2-4 9-13 6-12 1-4-11 1-13-1-14-4 2-4 9-10 8-14 5-13 2-9 1-11h2l2-5 17-33z" fill="#A42C34"/>
<path transform="translate(1624,343)" d="m0 0 2 2-19 38-2 2-2 6-2-3-3 2h-3v2l-7 4h-3v2l-5 1v2l-10 5h-2v2l-5 1v2l-4 2h-3v2l-7 2v2l-5 1v2l-6 3h-3v2l-9 3v2l-7 2-1 3-9-1-1-3 24-48 10-19 8-15 2-1z" fill="#A42B33"/>
<path transform="translate(429,330)" d="m0 0 49 2 24 1 4 2-7 9-11 16-8 11-17 6-10 5-10 4h-5v2h-2v2l-7 3-8 2h-5v2h-5v2l-14 5-10 4-13 5-2-1 48-69z" fill="#A22B33"/>
<path transform="translate(695,973)" d="m0 0 7 6 11 12 5 5v2h2l7 8 17 16 10 9h13l14 2 13 5 12 7 12 11 10 11 9 13v2l-10 4-11 2h-9l-15-3-16-8-12-12-7-12-4-13-1-8-24-22-12-12-6-7 6 23 5 5 6 9 3 9 1 5v12l-4 13-7 11-8 7-6 3-5-15-2-9v-24l4-12 7-11 2-2v-8l-6-20-11-12z" fill="#FD4E58"/>
<path transform="translate(1853,618)" d="m0 0h15l1 1 1 14-2 15-5 15-8 16-11 12-10 7-10 4-11 2-17-1-21 21-2-1 9-10 4-2v-2l8-7 1-1v-25l4-16 6-12 9-11 11-9 15-7z" fill="#BB343E"/>
<path transform="translate(780,616)" d="m0 0h2l1 64-9 4-6 1v2h-3v2l-10 4-11 1v4l-15 3-10 4-5 1v-65l12-5 10-3h3v-2l8-1v-2l8-1v-2l7-2 8-3z" fill="#A22B33"/>
<path transform="translate(493,642)" d="m0 0h2v43l-2 11-15 7h-2l-1 3-13 5-8 2h-5v2h-5v2l-10 4-10 3-4 2h-4l1-33 2-21 25-9h3v-2l10-4 16-6z" fill="#A22B33"/>
<path transform="translate(855,992)" d="m0 0 4 1 9 9 11 9 11 8 18 11v2l-4 2 5-2 5 1 21 9 19 6 19 4 15 2-2 2-11 1h-47l-24-3-26-6-20-7-25-12-14-9-13-10 1-2 22-8 11-2z" fill="#A42B33"/>
<path transform="translate(1301,987)" d="m0 0h13l14 3 12 5 11 8 3 3-2 4-15 10-19 10-17 5-6 1h-19l-14-3-12-5-5 1-4 1 3-3 5-3 6-10 9-10 9-7 14-7z" fill="#BD353E"/>
<path transform="translate(1367,870)" d="m0 0h1l8 59-1 4-73 7h-2l-2-9-2-16 12-6h4v-3l12-6 11-7h2v-2l9-3 1-3 7-2 1-3 5-1v-2l5-3h2z" fill="#A42B34"/>
<path transform="translate(173,824)" d="m0 0h2v58l-72-3-4-1v-23l14-5 10-4 11-5 12-5 15-6z" fill="#A22B33"/>
<path transform="translate(1670,755)" d="m0 0h1l4 41v10l-15 2-51 5h-10l-1-13 18-9 6-2 4-4 9-5h2v-2l10-5h2v-2l8-4h2v-2l9-5h2z" fill="#A42B34"/>
<path transform="translate(1349,420)" d="m0 0 28 8 24 7 5 5 10 25-8 4-13 4h-9l-12-4-9-7-6-7-6-12-4-16z" fill="#FCFAFA"/>
<path transform="translate(542,666)" d="m0 0h15l12 3 12 7 8 8 6 10 4 10 1 10-5 1-19-3-14-5-10-5-10-8-6-7-8-15-14-4v-1h7l10 2z" fill="#BB343E"/>
<path transform="translate(488,754)" d="m0 0 4 1-2 43-1 1-52-2-24-1v-10l3-3 17-6 11-5 12-4 8-4 11-4z" fill="#A32B33"/>
<path transform="translate(1506,437)" d="m0 0h7l10 3 11 6 1 3 4 2 4 5 8 6 9 2-1 2-5 3h-3v2l-4 2h-3v2l-7 4h-3v2l-5 1v2l-4 2h-3v2l-6 1-16-9h-2l-7-11 2-6z" fill="#A22B33"/>
<path transform="translate(409,892)" d="m0 0h22l43 2 11 1v17h-1l-1-9-16 8-7 3-12 5-7 3h-4v2l-27 10h-3l1-35z" fill="#A42B33"/>
<path transform="translate(1679,902)" d="m0 0h6l1 6v8h-1l-1-6-13 9-5 3h-3v2l-6 3h-2v2h-3v2l-7 2v2l-5 1v2l-26 14-2-4-3-31v-8l38-4z" fill="#A52C34"/>
<path transform="translate(1750,643)" d="m0 0 4 1 8 7 8 13 4 11v16l-4 10-7 8v10l1 12 8-7v3l-15 15-5 6-28 28-1 2h-2l-2 4h-3l7-8 6-7h2l2-4 12-12 7-8 10-9-2-12v-12l-5-2-8-7-6-9-3-8-1-4v-11l2-8 4-10z" fill="#B7343E"/>
<path transform="translate(695,973)" d="m0 0 7 6 11 12 5 5v2h2l7 8 17 16 12 11 5 3 3 3 4 3v2l4 1v2l5 2 15 10 4 2-1 2-10-5-14-10-11-8v-2l-4-2-5-5-10-9-13-12-12-12-6-7 6 23 5 5 6 9 3 9 1 5v12l-4 13-7 11-8 7-6 3-5-15-2-9v-24l4-12 7-11 2-2v-8l-6-20-11-12z" fill="#FD4E58"/>
<path transform="translate(1027,444)" d="m0 0 4 2 10 14-2 5-5 10-2 10v15l2 8 8 17 5 6 2 1v2l-8-1-14-7-10-9-7-11-4-12v-19l4-12 6-10 4-5 5-2z" fill="#EDECEB"/>
<path transform="translate(1756,793)" d="m0 0h13l-1 8-5 15-5 10-6 9-11 9-11 6-8 1-2 9-2 4h-1l1-7 2-5v-24l5-13 7-9 7-6 13-6z" fill="#BB343E"/>
<path transform="translate(1547,943)" d="m0 0h9l8 2-5 12-7 11-6 8h-2l-1 3-13 9-11 4-12 1-2 5-2 1 2-5 1-2 2-16 4-10 6-8 9-8 8-4z" fill="#FC4E58"/>
<path transform="translate(141,621)" d="m0 0h9l12 3 8 4v4l-11 11-10 7-12 6-7 2-13 1-15-2-3 3-2-1 4-4h2l1-6 6-10 7-8 10-6 8-3z" fill="#FD4E58"/>
<path transform="translate(1450,161)" d="m0 0h15l10 5 6 7 2 5v14l-4 9-9 8-5 1v19h-13l-1-7v-23l11-2 5-4 2-5-1-7-4-5-3-1h-7l-5 3-3 8h-14l1-9 4-8 7-6z" fill="#FE4F59"/>
<path transform="translate(1372,715)" d="m0 0h15l15 6 9 5v2h-2v2l-7 2v2l-4 1-1 2-9 3v2l-5 1v2l-5 3h-4v2l-7 2v2l-9 3v2l-15 8-3-1 23-46 6-4z" fill="#A82D35"/>
<path transform="translate(909,1032)" d="m0 0 5 1 21 9 19 6 19 4 15 2-2 2-11 1h-47l-24-3-26-6-6-2 4-3 9-3 5-2h3v-2l14-3z" fill="#A52C34"/>
<path transform="translate(1e3 410)" d="m0 0h31l5 1-2 3 4-2 10 1 13 5-5 5-16 10-13 8h-4l-10-9-14-9-11-5-8-3 3-2z" fill="#A32B33"/>
<path transform="translate(1934,445)" d="m0 0h2l4 9 1 5v16l-3 9-4 6-7 6-8 3-4 12-1-4 2-10-4-8-1-4v-15l4-10 9-10z" fill="#FD4E58"/>
<path transform="translate(1713,1166)" d="m0 0h17l10 4 6 5-2 5-8 8-14 7-3 1h-13l-9-4-7-5-12 1 4-2 9-2 4-6 7-7z" fill="#F54D57"/>
<path transform="translate(229,803)" d="m0 0 18 1 14 3 17 6 21 11 24 16 18 13 20 13 18 10 17 7 16 4 6 1h21l15-3 19-7 21-11 21-12 16-8 15-6 16-4 8-1h22l18 3 18 6 16 8 12 8 13 11 9 10-1 2-12-13-13-10-13-8-16-7-17-5-12-2h-25l-16 3-15 5-19 9-23 13-18 10-20 8-17 4h-24l-18-4-16-6-23-12-21-14-18-13-18-12-19-11-16-7-14-4-11-2h-21l-15 3-14 6-2-1 12-6 15-4z" fill="#FCCBB9"/>
<path transform="translate(936,917)" d="m0 0 6 2 22 11 19 10 35 18 1 2h-21l-15-5-15-8-12-9-10-9-10-10z" fill="#375962"/>
<path transform="translate(1216,585)" d="m0 0 9 1 8 4 3 2-1 13-2 15-2 2-10-6-16-17-8-6 1-2 13-5z" fill="#FCBE9D"/>
<path transform="translate(1340,418)" d="m0 0 7 1 2 10 4 15 6 12 8 9 10 6 7 3v1h-13l-13-4-9-7-6-9-3-9-1-5v-21z" fill="#FCF7F6"/>
<path transform="translate(1424,846)" d="m0 0h25l19 4 18 6 24 11 33 17 23 10 18 6 14 3 8 1h19l15-3 16-6 14-8 18-13 18-14 14-10 1 2-4 4-14 10-15 12-17 12-21 11-17 5-6 1h-23l-20-4-24-8-29-14-36-18-23-9-15-4-17-2h-9l-16 2-16 5-6 3-2-1 12-6 14-4z" fill="#FCCFC3"/>
<path transform="translate(872,954)" d="m0 0 21 1 21 5 17 6 18 8 30 14 21 8 18 5 7 1h29l14-3 15-5 14-7 14-10 16-16 6-7 1 3-12 13-5 5-10 9-13 8-15 7-18 5-16 2h-11l-16-2-19-5-25-10-29-14-21-9-24-7-13-2h-22l-14 3-3-1 9-3z" fill="#FCCFC3"/>
<path transform="translate(1064,420)" d="m0 0h1v8l-4 11-7 9-13 13-12-16 1-3 15-9 14-9h2v-2z" fill="#A22B33"/>
<path transform="translate(1e3 410)" d="m0 0h31l5 1-3 3h-2v2l-9 5-11 4-5 2-15-8-11-4 3-2z" fill="#AA2E36"/>
<path transform="translate(922,742)" d="m0 0 1 4-10 44-2 4-5-3-1-2-1-16-1-5 3-8 14-15z" fill="#FCDADC"/>
<path transform="translate(1495,437)" d="m0 0h11l-2 6-12 24-3-1-14-22 2-2 13-4z" fill="#FCF6F5"/>
<path transform="translate(1643,513)" d="m0 0 4 1 2 17 1 15-2-1-7 2v2l-9 4-5 3-2-1 8-16 5-12z" fill="#AB2E37"/>
<path transform="translate(427,465)" d="m0 0h22l16 4 12 5 27 14 17 9 18 6 11 2h18l15-3 14-5 11-6 9-7 2 1-8 7-14 8-14 5-15 3h-19l-15-3-16-6-23-12-20-11-17-6-16-3h-9l-15 3-6 3-2-1 10-5z" fill="#FCCCBC"/>
<path transform="translate(499,504)" d="m0 0 3 1v20l-1 10v15h-1v-14l-5 2-10 2-7 1 1-4 9-13z" fill="#A62C35"/>
<path transform="translate(1316,370)" d="m0 0h2v7l2 3 6 1 6-2 6-4 4-3 3 7v8l-1 6h-27z" fill="#253038"/>
<path transform="translate(1068,330)" d="m0 0 3 1-19 10-23 11-25 10-15 5-24 6-24 3h-22l-22-3-14-4-13-5 3-1 15 5 20 4 11 1h20l24-3 22-5 24-8 24-10 25-12z" fill="#FCCBB9"/>
<path transform="translate(1074,577)" d="m0 0h1l4 24v23l-4 15-6 12-9 11-12 11-20 15-19 14-20 14-17 12-16 12-5-1-4-5 8 4 10-8 15-11 34-24 32-24 12-11 7-8 7-12 4-15 1-17-2-19z" fill="#1A2D35"/>
<path transform="translate(229,803)" d="m0 0 18 1 14 3 17 6 21 11 24 16 18 13 20 13 18 10 3 2-3 1-19-10-21-14-18-13-18-12-19-11-16-7-14-4-11-2h-21l-15 3-14 6-2-1 12-6 15-4z" fill="#FCCBBA"/>
<path transform="translate(1756,479)" d="m0 0v3l-10 9-13 8-11 5-14 4-6 1h-23l-18-4-20-7-21-8-15-4-7-1v-2h7l21 6 30 11 13 4 11 2h21l15-3 15-6 12-7z" fill="#FCCFC2"/>
<path transform="translate(695,973)" d="m0 0 7 6 11 12 5 5v2h2l7 8 17 16 12 11 5 3 3 3 4 3v2l4 1v2l5 2 15 10 4 2-1 2-10-5-14-10-11-8v-2l-4-2-5-5-10-9-13-12-12-12-6-7 6 23v27l-3 11h-1l1-13v-25l-3-15-4-12-11-12z" fill="#253E47"/>
<path transform="translate(481,982)" d="m0 0 9 6 14 9 16 8 17 6 16 4 15 2h32v-12h1v21l-1 22h-1v-23l1-6-8 1h-25l-20-3-18-5-18-8-16-9-14-11z" fill="#FCCDBD"/>
<path transform="translate(503,862)" d="m0 0v3l-18 10-16 8-18 6-10 2h-24l-18-4-16-6-3-3 6 1 17 6 15 3h21l15-3 19-7 21-11z" fill="#FCCFC2"/>
<path transform="translate(788,716)" d="m0 0h19l-6 7-14 14-1 2h-2l-1-22z" fill="#FE4F59"/>
<path transform="translate(1207,408)" d="m0 0h9l10 3 7 6v2l-13-1-21-2-3-1 2-4z" fill="#1E323A"/>
<path transform="translate(1251,408)" d="m0 0 2 1 9 33 6 26-1 6-2 2h-14l-4-2 16-1v-7l-9-39-3-16z" fill="#28353D"/>
<path transform="translate(1693,989)" d="m0 0 5 2 21 10 20 6 16 3 12 1h17l18-2 13-2-1 2-12 3-16 2h-23l-20-3-15-4-16-6-15-8z" fill="#FCCDBF"/>
<path transform="translate(495,708)" d="m0 0 13 13 13 9 15 7 16 4h23l14-3 13-5 6-2-3 3-13 6-16 4h-25l-16-4-16-8-11-8-10-10-3-4z" fill="#FCD0C5"/>
<path transform="translate(791,501)" d="m0 0 9 3 16 6 22 5 8 1h30l19-3 8-2 4 1-13 4-18 3h-31l-18-3-20-6-16-8z" fill="#FCCDBF"/>
<path transform="translate(1424,846)" d="m0 0h25l19 4 18 6 24 11 4 3-3 1-23-11-19-7-12-3-17-2h-9l-16 2-16 5-6 3-2-1 12-6 14-4z" fill="#FCC9B5"/>
<path transform="translate(1776,829)" d="m0 0h25l17 3 18 6 16 8 11 7 2 3-5-2-9-6-19-9-18-5-11-2h-28l-16 3-10 3 1-3 13-4z" fill="#FCC8B3"/>
<path transform="translate(1101,348)" d="m0 0 1 2-4 7-6 7-5 5-7 8h-2l2-11 6-9 4-4h3v-2z" fill="#F54B55"/>
<path transform="translate(872,954)" d="m0 0 21 1 21 5 17 6 18 8 17 8v2l-5-1-27-13-19-7-21-5-7-1h-22l-14 3-3-1 9-3z" fill="#FCC8B4"/>
<path transform="translate(1668,715)" d="m0 0 8 6 10 7 15 7 15 4 14 1 13-1 15-4 4-1-3 4-16 4-8 1h-12l-20-4-16-7-12-9-7-6z" fill="#FCCDBD"/>
<path transform="translate(898,768)" d="m0 0h5l2 7v14l-5-2-10-8 1-4z" fill="#FD4E58"/>
<path transform="translate(1760,710)" d="m0 0h1l3 15v6l8-7v3l-15 15-5 6-28 28-1 2h-2l-2 4h-3l7-8 6-7h2l2-4 12-12 7-8 10-9-2-12z" fill="#482E36"/>
<path transform="translate(1704,343)" d="m0 0 2 1-10 7-17 9-19 7-17 4-16 2h-15l4-2 26-3 20-5 16-6 16-8z" fill="#FCCBB9"/>
<path transform="translate(584,344)" d="m0 0 2 1-16 8-20 6-15 3-10 1h-24l-13-2v-1h36l21-3 25-7z" fill="#FCCCBB"/>
<path transform="translate(1285,395)" d="m0 0h11l6 3 1 5-26 1v-4l5-4z" fill="#1D3038"/>
<path transform="translate(1513,870)" d="m0 0 5 1 25 13 23 10 18 6 9 2-3 2-16-4-16-6-25-12-20-10z" fill="#FCCEC2"/>
<path transform="translate(1292,420)" d="m0 0 7 1 3 4-1 7-5 3-6-1-3-4 1-7z" fill="#1C3139"/>
<path transform="translate(1361,376)" d="m0 0 4 3v6l-5 5-6 3h-5v-11l9-3z" fill="#FCF6F7"/>
<path transform="translate(1011,836)" d="m0 0h2l4 5 13 9 13 6 13 3h21l15-4 5-2 3 1-11 5-15 3h-18l-16-4-12-6-12-9-5-5z" fill="#1A2D35"/>
<path transform="translate(321,595)" d="m0 0h13l11 4 11 7 13 12 7 7 9 11 4 5-1 2-13-14-7-8-8-8-13-10-12-5-14-2z" fill="#FCCDBF"/>
<path transform="translate(1461,235)" d="m0 0 4 1v12h-13v-12z" fill="#FD4E58"/>
<path transform="translate(1133,954)" d="m0 0 1 3-12 13-5 5-10 9-13 8-6 3h-3v-2l12-6 14-10 16-16z" fill="#FCCDBF"/>
<path transform="translate(1223,488)" d="m0 0h10l8 4 6 6 2 5-1 4-8-9-10-5-10-2v-2z" fill="#2F3039"/>
<path transform="translate(782,571)" d="m0 0h1v103h-1v-58l-12 5h-4v-2l15-5z" fill="#BE353F"/>
<path transform="translate(380,878)" d="m0 0 6 1 17 6 15 3 26 1-3 2h-24l-18-4-16-6z" fill="#FCD0C6"/>
<path transform="translate(221,689)" d="m0 0h3v2l-8 3-33 13-17 6-3-1 14-6 8-3h4v-2l6-2h4v-2l10-2v-2l10-3z" fill="#DB414B"/>
<path transform="translate(1211,424)" d="m0 0h11l6 3 4 5-6-1-3-1h-13l-8 1 4-5z" fill="#20343D"/>
<path transform="translate(1644,900)" d="m0 0 4 1-7 3-14 3h-23l-12-2-2-2 16 1h19l15-3z" fill="#FCD1C3"/>
<path transform="translate(1288,406)" d="m0 0h7l9 4 1 3-8-1h-10l-9 3-3-1 5-5z" fill="#21333C"/>
<path transform="translate(707,989)" d="m0 0h2l5 16 2 9v27l-3 11h-1l1-13v-25l-3-15z" fill="#323A43"/>
<path transform="translate(1776,829)" d="m0 0h25l4 2-30 1-16 3-10 3 1-3 13-4z" fill="#FCCFC3"/>
<path transform="translate(427,465)" d="m0 0h22l16 4 6 2-4 2-12-4-13-2h-9l-15 3-6 3-2-1 10-5z" fill="#FCC9B5"/>
<path transform="translate(1668,715)" d="m0 0 8 6 10 7 15 7 15 4-1 2-8-1-16-6-11-7-11-9z" fill="#FCD0C5"/>
<path transform="translate(753,1033)" d="m0 0 5 1 6 5 4 3v2l4 1v2l5 2 15 10 4 2-1 2-10-5-14-10-11-8v-2l-4-2z" fill="#AF3039"/>
<path transform="translate(469,472)" d="m0 0 6 1 20 10 17 10-4 1-24-13-15-8z" fill="#FCCFC4"/>
<path transform="translate(1809,686)" d="m0 0 2 1-7 8-29 29-2-1 9-10 4-2v-2l8-7 2-4 4-1 2-4z" fill="#1F353D"/>
<path transform="translate(478,895)" d="m0 0h7v17h-1l-1-9-16 8-14 6-4-1h2v-2l9-2v-2l7-2 8-4 9-3v-5h-6z" fill="#BE353F"/>
<path transform="translate(1681,879)" d="m0 0h3v2l-15 10-19 10-4-2 12-5 15-9z" fill="#FCCEC0"/>
<path transform="translate(136,638)" d="m0 0 3 1-3 2-17 6h-2v2l-9 5h-3v2l-5 3h-3l4-4h2v-2l10-6 11-5z" fill="#57333B"/>
<path transform="translate(1552,889)" d="m0 0 9 3 17 6 15 4-3 2-16-4-16-6-6-3z" fill="#FCCEC1"/>
<path transform="translate(791,501)" d="m0 0 9 3 16 6 17 4 1 3-11-2-21-7-11-6z" fill="#FCCBBA"/>
<path transform="translate(1291,1012)" d="m0 0h8v1l-22 4-21 7-13 6-2-1 8-5 16-6 14-4z" fill="#1E3038"/>
<path transform="translate(1062,419)" d="m0 0m-1 1m-1 1 1 3-18 11-16 10-3 3-2-1 9-8 19-11z" fill="#1A2D35"/>
<path transform="translate(606,731)" d="m0 0 2 1-16 8-16 4-19-1v-1l18-1 14-3 13-5z" fill="#FCC9B6"/>
<path transform="translate(1756,479)" d="m0 0v3l-10 9-13 8-11 5-4 1-2-2 15-6 12-7z" fill="#FCCBBB"/>
<path transform="translate(966,983)" d="m0 0 9 3 19 8 9 3-4 2-25-10-8-4z" fill="#FCCDBE"/>
<path transform="translate(1576,484)" d="m0 0h5l-3 3-18 6h-5l3-3 12-5z" fill="#EC4852"/>
<path transform="translate(222,739)" d="m0 0v3l-3 3-1-2-21 10-7 3-4-1 4-1v-2l7-2 10-5z" fill="#C23741"/>
<path transform="translate(1362,720)" d="m0 0 1 2-13 26h-3l2-6 9-17z" fill="#FCD3CA"/>
<path transform="translate(584,344)" d="m0 0 2 1-16 8-20 6-5-1v-1l25-7z" fill="#FCC8B4"/>
<path transform="translate(529,735)" d="m0 0 10 3 18 4 13 1v1h-19l-16-4-6-3z" fill="#FCD0C6"/>
<path transform="translate(494,640)" d="m0 0 3 1-1 21h-1v-20l-22 10-4-1 10-5z" fill="#BF3640"/>
<path transform="translate(304,548)" d="m0 0h3v2l-30 11-7 2 3-3 11-5z" fill="#D33E48"/>
<path transform="translate(481,982)" d="m0 0 9 6 14 9 12 6-3 2-18-10-14-11z" fill="#FCCCBC"/>
<path transform="translate(514,667)" d="m0 0h7l13 4 12 5 9 5-2 1-17-8-20-5z" fill="#1D2C34"/>
<path transform="translate(713,627)" d="m0 0h1v12l7-3h5l-1 2-8 3h-3v34h-1z" fill="#C13640"/>
<path transform="translate(1695,1010)" d="m0 0h1v9l-1-3-16 10-9 5-2-1 3-1v-2l5-1v-2l5-1v-2l13-8z" fill="#C03640"/>
<path transform="translate(279,815)" d="m0 0 5 1 15 8 12 8-2 2-16-10-14-8z" fill="#FCCCBC"/>
<path transform="translate(1317,309)" d="m0 0 6 4v2h2v2h2l3 4v2h2l3 5v2l-4-1-9-12-5-6z" fill="#C3B6B0"/>
<path transform="translate(444,661)" d="m0 0h3v2l-25 9h-3v7h-1v-10l2 1 14-6z" fill="#CF3C46"/>
<path transform="translate(1693,989)" d="m0 0 5 2 21 10 9 3v2l-9-2-17-8-9-6z" fill="#FCCBBB"/>
<path transform="translate(249,624)" d="m0 0 3 1-6 3-16 6-11 4-2-1 10-5 17-6z" fill="#BE353F"/>
<path transform="translate(1407,113)" d="m0 0 2 1-14 10-7 8-8 7v-3l15-15z" fill="#616C6E"/>
<path transform="translate(1083,994)" d="m0 0 3 1-2 2-18 6-8 1-4-2 14-3z" fill="#FCCCBC"/>
<path transform="translate(1064,544)" d="m0 0 6 2 10 5 7 3-3 1-18-5z" fill="#A52C34"/>
<path transform="translate(1733,830)" d="m0 0 1 2-8 13-5 12-3 7h-1l1-7 6-13 7-12z" fill="#462F37"/>
<path transform="translate(456,711)" d="m0 0 3 1-12 6-14 5h-4v-2l10-3 5-1v-2h5v-2z" fill="#DA404A"/>
<path transform="translate(746,761)" d="m0 0 3 1-9 4-20 7-2-1 10-5 6-2 7-1v-2z" fill="#CF3C46"/>
<path transform="translate(413,888)" d="m0 0 31 1-3 2h-24l-4-1z" fill="#FCD4CD"/>
<path transform="translate(140,774)" d="m0 0 3 1-10 5-20 7-1-2 17-7z" fill="#BD353F"/>
<path transform="translate(1099,347)" d="m0 0h4l-1 3h-3l-6 1v2l-5 3-4 5-3 5-1-3 3-6 10-8z" fill="#5D2D35"/>
<path transform="translate(1638,936)" d="m0 0h2v2l-26 14v-3l11-6 6-2v-2z" fill="#CE3C46"/>
<path transform="translate(434,922)" d="m0 0h3v2l-27 10-3-1 8-4 7-3 10-3z" fill="#CE3C46"/>
<path transform="translate(1683,908)" d="m0 0h3v8h-1l-1-6-13 9-5 3h-3v-2h3v-2l5-1v-2l11-6z" fill="#C33741"/>
<path transform="translate(1664,703)" d="m0 0v3l-14 9-6 4-5 1 1-2h2v-2l5-1v-2l7-2v-2z" fill="#CF3C46"/>
<path transform="translate(369,619)" d="m0 0 7 6 9 11 4 5-1 2-13-14-6-7z" fill="#FCCCBD"/>
<path transform="translate(348,475)" d="m0 0 3 1-12 5-16 6h-2v-2l15-6z" fill="#C93A44"/>
<path transform="translate(1736,760)" d="m0 0 2 2-14 14-1 2h-2l-2 4h-3l7-8 6-7h2l2-4z" fill="#A82F38"/>
<path transform="translate(489,752)" d="m0 0 3 1-4 2-20 9-4-1 10-5 10-4z" fill="#C63842"/>
<path transform="translate(949,372)" d="m0 0h9l-3 2-4 1h-30v-1z" fill="#FCDAD5"/>
<path transform="translate(174,822)" d="m0 0 1 2-23 11-4-1 5-3 8-3 10-5z" fill="#D23D47"/>
<path transform="translate(783,535)" d="m0 0h3v7h-1v-5l-17 7h-5l3-1v-2z" fill="#CA3A44"/>
<path transform="translate(514 1e3)" d="m0 0 6 1 17 6v3l-10-3-12-5z" fill="#FCCEC1"/>
<path transform="translate(1929,465)" d="m0 0 1 3-7 21h-2l2-11 5-12z" fill="#8B2E37"/>
<path transform="translate(1659,642)" d="m0 0h1v9l-5 2-13 8h-3v-2h3v-2l6-3 10-6z" fill="#C93A44"/>
<path transform="translate(291,607)" d="m0 0h3v2l-8 3-12 5h-5v-2h5v-2h5v-2l10-3z" fill="#DD424C"/>
<path transform="translate(714,1021)" d="m0 0h1l1 11v9l-3 11h-1l1-13z" fill="#9A2E37"/>
<path transform="translate(795,873)" d="m0 0h1v5l-14 6-5 2h-5v-2l9-3 11-4h3z" fill="#D23D47"/>
<path transform="translate(752,473)" d="m0 0h3v2l-27 9v-2l15-6z" fill="#CD3B45"/>
<path transform="translate(493,689)" d="m0 0h1v16h-1v-7l-13 6-4-1 12-6 5-1z" fill="#C63842"/>
<path transform="translate(391,405)" d="m0 0h5l-3 3-21 7-1-2z" fill="#C83943"/>
<path transform="translate(855,990)" d="m0 0 2 2-20 8h-5l3-2 9-4z" fill="#D43E48"/>
<path transform="translate(1668,715)" d="m0 0 8 6 10 7 6 3-1 2-5-2-11-8-7-6z" fill="#FCC8B4"/>
<path transform="translate(753,1033)" d="m0 0 5 1 6 5 4 3v2l4 1 1 3-4-2-9-6v-2l-4-2z" fill="#762D36"/>
<path transform="translate(1402,785)" d="m0 0 1 2-2 2h-2l-14 9-4 1 1-2h2v-2h3v-2l12-7z" fill="#C53842"/>
<path transform="translate(1644,900)" d="m0 0 4 1-7 3-8 2h-6l-2-2 15-3z" fill="#FCD0C5"/>
<path transform="translate(1057,440)" d="m0 0h2l-1 3h-3v2l-16 6-2-1 9-5 8-3z" fill="#D03C46"/>
<path transform="translate(549,840)" d="m0 0h6l-2 2-15 5-5 1v-2z" fill="#FCCFC3"/>
<path transform="translate(1760,710)" d="m0 0h1l4 22-2 1-3-11z" fill="#8A2E36"/>
<path transform="translate(1611,735)" d="m0 0h2v2l-17 9-3-1 8-5z" fill="#CA3A44"/>
<path transform="translate(494,585)" d="m0 0 3 1-19 9-4-1 4-2h3v-2z" fill="#D03C46"/>
<path transform="translate(430,440)" d="m0 0v3l-3 3-9 3-4 2-4-1 10-5 9-4z" fill="#CA3A44"/>
<path transform="translate(468,907)" d="m0 0 3 1-4 3-14 6-4-1h2v-2l9-2v-2l7-2z" fill="#D9404A"/>
<path transform="translate(1552,889)" d="m0 0 9 3 10 4-1 2-10-3-8-4z" fill="#FCCCBD"/>
<path transform="translate(1389,858)" d="m0 0 2 1-10 9-6 5 1-4 7-7zm-15 15m-2 1 2 1-2 1z" fill="#FD9C87"/>
<path transform="translate(1616,791)" d="m0 0h2v2l-18 9-2 3v-5l10-5z" fill="#C73943"/>
<path transform="translate(779,402)" d="m0 0 3 1-9 4-11 4-3-1 2-2 9-3z" fill="#CA3A44"/>
<path transform="translate(1319,835)" d="m0 0 2 1-13 8-5 3h-3v-2l11-6z" fill="#C63842"/>
<path transform="translate(182,704)" d="m0 0 4 2-20 7-3-1 14-6z" fill="#C73943"/>
<path transform="translate(268,669)" d="m0 0h3l-1 3-9 3-6 3-4-1 12-6z" fill="#C93943"/>
<path transform="translate(530,501)" d="m0 0 20 4-4 2-8-1-10-3z" fill="#FCCBBA"/>
<path transform="translate(1518,978)" d="m0 0v3l-6 8h-2v2h-2l-2 5-3 3 2-5 6-9z" fill="#3C333B"/>
<path transform="translate(466,960)" d="m0 0 4 1-12 6-5 2-4-1 7-3h2v-2l7-2z" fill="#D9404A"/>
<path transform="translate(1602,681)" d="m0 0 2 1-3 3-12 6-2 2v-5l5-2 6-3z" fill="#C93A44"/>
<path transform="translate(1756,479)" d="m0 0v3l-10 9-9 5 1-3 11-8z" fill="#FCC7B1"/>
<path transform="translate(795,942)" d="m0 0h6l-1 2-5-1zm-2 1h2v3l-8 3h-5v-2l8-1v-2z" fill="#D8404A"/>
<path transform="translate(1919,489)" d="m0 0h2l-1 9-4 10-2 3 1-7z" fill="#4F353E"/>
<path transform="translate(1041,433)" d="m0 0m-2 1h2l-1 3-14 9-4 2 5-6z" fill="#1D3139"/>
<path transform="translate(1760,734)" d="m0 0 2 1-3 3-11 3h-5v-2l15-4z" fill="#FCCFC3"/>
<path transform="translate(733,699)" d="m0 0 3 1-12 5-6 2-4-1 14-5z" fill="#D13D47"/>
<path transform="translate(1690,958)" d="m0 0h1v8l-1-3-11 7-3-1h2v-2l10-6h2z" fill="#C23741"/>
<path transform="translate(1763,831)" d="m0 0 5 1v1l-16 4-3 1 1-3z" fill="#FCC9B6"/>
<path transform="translate(740,830)" d="m0 0 3 1-9 4-11 3 3-3z" fill="#C73943"/>
<path transform="translate(1786,709)" d="m0 0h2l-2 4-11 11-2-1 9-10 4-2z" fill="#3E2D35"/>
<path transform="translate(782,680)" d="m0 0 1 3-13 5h-5l3-1v-2z" fill="#CA3A44"/>
<path transform="translate(136,638)" d="m0 0 3 1-3 2-13 5-4-2z" fill="#862E37"/>
<path transform="translate(1651,593)" d="m0 0 2 1-5 4-9 6-5 1 1-2h2v-2l7-2v-2z" fill="#D33D47"/>
<path transform="translate(1657,502)" d="m0 0 8 1 9 2 1 3-14-3-4-2z" fill="#FCD1C8"/>
<path transform="translate(805,453)" d="m0 0 1 3-9 3-5 2h-5l4-3z" fill="#CA3A44"/>
<path transform="translate(1715,1180)" d="m0 0h11l-3 2-6 1h-11l2-2z" fill="#822E37"/>
<path transform="translate(560,1017)" d="m0 0 19 1v2h-12l-7-2z" fill="#FCD3CD"/>
<path transform="translate(1535,964)" d="m0 0v3l-5 3-4 4-5 4-2-1 6-6h2v-2z" fill="#722E37"/>
<path transform="translate(503,862)" d="m0 0v3l-12 7h-3v-2z" fill="#FCD1C8"/>
<path transform="translate(1843,652)" d="m0 0h2l-2 4-10 10-2-1 11-12z" fill="#932B33"/>
<path transform="translate(356,608)" d="m0 0 5 2 8 8-1 3-8-8-4-3z" fill="#FCD3CA"/>
<path transform="translate(496,534)" d="m0 0 5 1v15h-1v-14l-5 2h-5v-2z" fill="#C93943"/>
<path transform="translate(858,372)" d="m0 0 2 1-6 5v-2l-9 4-4-1 9-4z" fill="#C43741"/>
<path transform="translate(1681,879)" d="m0 0h3v2l-12 8-2-2z" fill="#FCCDBE"/>
<path transform="translate(468,1011)" d="m0 0 4 1-14 7-4-1 5-3 7-3z" fill="#D8404A"/>
<path transform="translate(774,951)" d="m0 0 3 1-9 4-7 1-1 2-1-3 10-4z" fill="#CD3B45"/>
<path transform="translate(431,776)" d="m0 0 3 1-12 5-8 2 3-3z" fill="#CD3B45"/>
<path transform="translate(546,741)" d="m0 0 11 1 13 1v1h-19l-5-2z" fill="#FCD6D4"/>
<path transform="translate(199,698)" d="m0 0 3 1-9 4-5 2-4-1 5-1v-2z" fill="#D8404A"/>
<path transform="translate(374,519)" d="m0 0 2 1-3 5-1-2-7 3-4-1 8-4z" fill="#C93943"/>
<path transform="translate(1681,1021)" d="m0 0 3 1-5 4-9 5-2-1 3-1v-2l5-1v-2l5-1z" fill="#D9404A"/>
<path transform="translate(486,871)" d="m0 0 3 1-4 3-10 5-2-2z" fill="#FCCDBE"/>
<path transform="translate(200,748)" d="m0 0h3v2l-11 5-6 1 4-2v-2l7-2z" fill="#D9404A"/>
<path transform="translate(1097,987)" d="m0 0 3 1-8 5-4 2h-3v-2z" fill="#FCD7D0"/>
<path transform="translate(816,933)" d="m0 0 2 4-13 5-4-1 14-6z" fill="#D03C46"/>
<path transform="translate(398,884)" d="m0 0 14 3 1 3-14-3z" fill="#FCCEC1"/>
<path transform="translate(1645,774)" d="m0 0 2 1-3 3-8 4h-2v2l-4-1 5-3h2v-2z" fill="#E4444E"/>
<path transform="translate(495,708)" d="m0 0 16 16h-3l-10-10-3-4z" fill="#FCC2A6"/>
<path transform="translate(728,556)" d="m0 0 3 1-9 4-8 2v-2z" fill="#CC3B45"/>
<path transform="translate(498,486)" d="m0 0 6 2 8 5-4 1-10-6z" fill="#FCD2C8"/>
<path transform="translate(758,890)" d="m0 0 3 1-8 4-6 2-4-1 5-2h3v-2z" fill="#DF424C"/>
<path transform="translate(756,824)" d="m0 0h3v2l-11 4h-5l3-1v-2h5v-2z" fill="#DB414B"/>
<path transform="translate(157,767)" d="m0 0 3 1-10 5-7 1 3-3z" fill="#DB414B"/>
<path transform="translate(249,624)" d="m0 0 3 1-6 3-8 3-4-1 11-5z" fill="#DF424C"/>
<path transform="translate(446,605)" d="m0 0 3 1-8 4-9 2v-2z" fill="#DB414B"/>
<path transform="translate(284,555)" d="m0 0 4 1-3 2-13 5-2-1 10-5z" fill="#BF353F"/>
<path transform="translate(484,480)" d="m0 0 7 1 7 4-1 3-13-7z" fill="#FCCDC0"/>
<path transform="translate(1632,995)" d="m0 0h2v2l-13 7h-2v-2l10-6z" fill="#C73943"/>
<path transform="translate(481,982)" d="m0 0 9 6 7 5-2 2-14-11z" fill="#FCC6AF"/>
<path transform="translate(1367,870)" d="m0 0h1v6l-10 6h-3v-2l5-1v-2l5-3h2z" fill="#C93A44"/>
<path transform="translate(1670,755)" d="m0 0h1v8h-3l-6 4h-3v-2l9-5h2z" fill="#C53842"/>
<path transform="translate(760,544)" d="m0 0 3 1-9 4-7 1v-2z" fill="#DC414B"/>
<path transform="translate(834,515)" d="m0 0 12 1 3 1v2l-11-1-4-1z" fill="#FCD1C5"/>
<path transform="translate(1712,504)" d="m0 0h6l-2 2-8 2-7-1v-1z" fill="#FCCEC1"/>
<path transform="translate(1345,380)" d="m0 0 2 1v12h-3z" fill="#FCF3F0"/>
<path transform="translate(1083,994)" d="m0 0 3 1-2 2-8 3h-4v-2z" fill="#FCD0C3"/>
<path transform="translate(482,645)" d="m0 0h2v2l-11 5-4-1 10-5z" fill="#D73F49"/>
<path transform="translate(487,538)" d="m0 0h3v2l-12 4-3-1 3-3 7-1z" fill="#D23D47"/>
<path transform="translate(885,1040)" d="m0 0 3 1-9 4-7 1 4-3z" fill="#CE3C46"/>
<path transform="translate(140,774)" d="m0 0 3 1-10 5h-5l1-2z" fill="#DA404A"/>
<path transform="translate(514,667)" d="m0 0h7l8 2-2 2-11-2z" fill="#A22E37"/>
<path transform="translate(468,374)" d="m0 0 4 1-10 5-4-1z" fill="#D13D47"/>
<path transform="translate(1666,975)" d="m0 0h2v2l-11 6-2-1 3-1v-2l5-1v-2z" fill="#DD424C"/>
<path transform="translate(1745,751)" d="m0 0h2l-2 4-6 6h-2l2-4z" fill="#712B33"/>
<path transform="translate(427,722)" d="m0 0 3 1-2 2-9 3h-3v-2z" fill="#BD353F"/>
<path transform="translate(1547,417)" d="m0 0h2v2l-5 1v2l-6 3h-3v-2z" fill="#DF424C"/>
<path transform="translate(408,399)" d="m0 0 3 1-8 4-7 1 1-2z" fill="#DB414B"/>
<path transform="translate(423,393)" d="m0 0 3 1-10 5h-5v-2h5v-2z" fill="#E2434D"/>
<path transform="translate(991,363)" d="m0 0 4 1-6 3-7 1-1-2z" fill="#FCD2C8"/>
<path transform="translate(954,978)" d="m0 0 6 1 6 3v2l-5-1-7-4z" fill="#FCD0C6"/>
<path transform="translate(1308,909)" d="m0 0 2 1-9 6-5 1v-2z" fill="#D03C46"/>
<path transform="translate(110,849)" d="m0 0 4 1-9 4-6 1 4-3z" fill="#C43741"/>
<path transform="translate(474,758)" d="m0 0 4 1-10 5-4-1z" fill="#D9404A"/>
<path transform="translate(736,631)" d="m0 0h3v2l-8 3h-5l1-2h4v-2z" fill="#D9404A"/>
<path transform="translate(1598,483)" d="m0 0h7l6 2v2l-13-2z" fill="#FCCBBA"/>
<path transform="translate(1560,464)" d="m0 0 3 1-11 7-3-1h2v-2z" fill="#D03C46"/>
<path transform="translate(1506,437)" d="m0 0h7v2l-6 3-3-1z" fill="#B03039"/>
<path transform="translate(1671,915)" d="m0 0h3l-1 3-7 4h-3v-2h3v-2l5-1z" fill="#D33E48"/>
<path transform="translate(375,464)" d="m0 0 3 1-8 4-7 1 2-2h3v-2z" fill="#E5454F"/>
<path transform="translate(1602,384)" d="m0 0 3 1-2 6-2-3-3 2h-3v-2l6-3z" fill="#CC3B45"/>
<path transform="translate(1085,355)" d="m0 0 3 1-4 5-3 5-1-3 3-6z" fill="#662D35"/>
</svg>
