<svg xmlns="http://www.w3.org/2000/svg" xmlns:xlink="http://www.w3.org/1999/xlink" width="500" zoomAndPan="magnify" viewBox="0 0 375 374.999991" height="500" preserveAspectRatio="xMidYMid meet" version="1.0"><defs><g/><clipPath id="0119426836"><path d="M 43.5 118.980469 L 187.5 118.980469 L 187.5 268.980469 L 43.5 268.980469 Z M 43.5 118.980469 " clip-rule="nonzero"/></clipPath></defs><g clip-path="url(#0119426836)"><path fill="#ff5757" d="M 128.722656 153.300781 C 128.722656 157.757812 123.40625 161.308594 118.089844 165.761719 C 112.777344 161.308594 107.460938 157.757812 107.460938 153.300781 C 107.460938 150.84375 109.84375 147.945312 112.777344 147.945312 C 115.433594 147.945312 116.761719 149.0625 118.089844 151.285156 C 119.421875 149.0625 120.75 147.945312 123.40625 147.945312 C 126.339844 147.945312 128.722656 150.84375 128.722656 153.300781 Z M 135.304688 154.347656 C 148.277344 156.859375 162.621094 162.085938 162.621094 171.507812 L 162.621094 172.515625 L 187.476562 164.039062 C 179.96875 149.117188 170.273438 137.953125 158.417969 130.574219 C 146.304688 122.871094 132.980469 118.984375 118.519531 118.984375 C 108.367188 118.984375 98.667969 120.945312 89.328125 124.828125 C 80.351562 128.714844 72.417969 134.101562 65.527344 140.992188 C 58.636719 147.878906 53.25 155.78125 49.363281 164.730469 C 45.480469 174.101562 43.519531 183.863281 43.519531 193.984375 C 43.519531 204.136719 45.480469 213.867188 49.363281 223.175781 C 53.25 232.152344 58.636719 240.085938 65.527344 246.976562 C 72.417969 253.867188 80.351562 259.253906 89.328125 263.140625 C 98.667969 267.058594 108.367188 268.984375 118.519531 268.984375 C 132.984375 268.984375 146.304688 265.132812 158.417969 257.425781 C 170.269531 250.011719 179.96875 238.84375 187.476562 223.925781 L 160.339844 215.425781 L 160.289062 215.4375 C 146.234375 234.53125 73.191406 232.277344 73.191406 208.617188 C 83.300781 215.78125 99.5625 220.429688 117.90625 220.429688 C 126.394531 220.429688 134.4375 219.429688 141.632812 217.652344 C 146.292969 216.5 145.582031 212.566406 145.582031 212.566406 C 120.28125 220.679688 75.503906 215.890625 73.285156 198.15625 C 73.363281 198.234375 75.617188 200.695312 83.128906 202.128906 C 89.847656 203.414062 85.894531 210.320312 95.875 211.734375 C 100.363281 211.734375 101.820312 207.367188 104.398438 207.714844 C 108.855469 208.316406 113.085938 208.582031 117.90625 208.582031 C 127.984375 208.582031 137.4375 207.179688 145.582031 204.726562 C 145.582031 200.636719 144.863281 195.421875 139.390625 195.398438 C 134.402344 195.375 135.152344 202.488281 125.25 203.390625 C 116.867188 204.148438 114.820312 200.007812 109.5 199.84375 C 100.800781 199.570312 100.320312 207.867188 95.875 207.507812 C 92.777344 207.257812 91.015625 204.046875 90.285156 200.191406 C 89.554688 196.332031 86.492188 190.609375 83.097656 190.808594 C 79.703125 191.007812 79.375 193.734375 77.042969 194.46875 C 73.691406 195.519531 73.191406 192.390625 73.191406 190.179688 L 73.191406 171.511719 C 73.191406 162.007812 87.792969 156.769531 100.855469 154.285156 C 103.078125 160.507812 110.582031 165.972656 118.089844 172.558594 C 125.574219 165.996094 133.050781 160.546875 135.304688 154.347656 Z M 117.90625 232.265625 C 136.246094 232.265625 152.511719 227.621094 162.621094 220.460938 C 162.621094 246.605469 73.191406 246.636719 73.191406 220.460938 C 83.300781 227.621094 99.5625 232.265625 117.90625 232.265625 Z M 117.90625 232.265625 " fill-opacity="1" fill-rule="evenodd"/></g><g fill="#ff5757" fill-opacity="1"><g transform="translate(167.683587, 199.230544)"><g><path d="M 7.296875 -17.765625 C 8.554688 -17.765625 9.5 -17.691406 10.125 -17.546875 C 11.195312 -17.304688 12.082031 -16.796875 12.78125 -16.015625 C 13.476562 -15.242188 13.828125 -14.28125 13.828125 -13.125 C 13.828125 -12.351562 13.644531 -11.648438 13.28125 -11.015625 C 12.925781 -10.390625 12.421875 -9.894531 11.765625 -9.53125 C 12.734375 -9.195312 13.460938 -8.679688 13.953125 -7.984375 C 14.441406 -7.285156 14.6875 -6.425781 14.6875 -5.40625 C 14.6875 -4.539062 14.503906 -3.738281 14.140625 -3 C 13.785156 -2.257812 13.28125 -1.660156 12.625 -1.203125 C 11.914062 -0.703125 11.238281 -0.375 10.59375 -0.21875 C 9.945312 -0.0703125 8.921875 0 7.515625 0 L 1.609375 0 L 1.609375 -17.765625 Z M 9.484375 -12.4375 C 9.484375 -12.894531 9.34375 -13.234375 9.0625 -13.453125 C 8.78125 -13.671875 8.351562 -13.78125 7.78125 -13.78125 L 5.953125 -13.78125 L 5.953125 -11.015625 L 7.75 -11.015625 C 8.90625 -11.015625 9.484375 -11.488281 9.484375 -12.4375 Z M 10.34375 -5.6875 C 10.34375 -6.707031 9.660156 -7.21875 8.296875 -7.21875 L 5.953125 -7.21875 L 5.953125 -3.984375 L 8.28125 -3.984375 C 8.9375 -3.984375 9.441406 -4.125 9.796875 -4.40625 C 10.160156 -4.695312 10.34375 -5.125 10.34375 -5.6875 Z M 10.34375 -5.6875 "/></g></g></g><g fill="#ff5757" fill-opacity="1"><g transform="translate(183.203983, 199.230544)"><g><path d="M 11.40625 -1.4375 C 11.113281 -0.863281 10.609375 -0.40625 9.890625 -0.0625 C 9.171875 0.28125 8.367188 0.453125 7.484375 0.453125 C 6.203125 0.453125 5.050781 0.140625 4.03125 -0.484375 C 3.019531 -1.109375 2.226562 -1.960938 1.65625 -3.046875 C 1.09375 -4.140625 0.8125 -5.347656 0.8125 -6.671875 C 0.8125 -7.960938 1.101562 -9.148438 1.6875 -10.234375 C 2.269531 -11.328125 3.066406 -12.191406 4.078125 -12.828125 C 5.097656 -13.460938 6.234375 -13.78125 7.484375 -13.78125 C 8.316406 -13.78125 9.082031 -13.613281 9.78125 -13.28125 C 10.488281 -12.957031 11.03125 -12.5 11.40625 -11.90625 L 11.453125 -11.90625 L 11.453125 -13.3125 L 15.4375 -13.3125 L 15.4375 0 L 11.453125 0 L 11.453125 -1.4375 Z M 11.453125 -6.671875 C 11.453125 -7.273438 11.296875 -7.835938 10.984375 -8.359375 C 10.679688 -8.878906 10.269531 -9.289062 9.75 -9.59375 C 9.226562 -9.90625 8.664062 -10.0625 8.0625 -10.0625 C 7.46875 -10.0625 6.914062 -9.90625 6.40625 -9.59375 C 5.90625 -9.289062 5.507812 -8.875 5.21875 -8.34375 C 4.9375 -7.820312 4.796875 -7.25 4.796875 -6.625 C 4.796875 -6.019531 4.941406 -5.457031 5.234375 -4.9375 C 5.535156 -4.425781 5.9375 -4.019531 6.4375 -3.71875 C 6.945312 -3.414062 7.503906 -3.265625 8.109375 -3.265625 C 8.722656 -3.265625 9.285156 -3.414062 9.796875 -3.71875 C 10.304688 -4.019531 10.707031 -4.429688 11 -4.953125 C 11.300781 -5.472656 11.453125 -6.046875 11.453125 -6.671875 Z M 11.453125 -6.671875 "/></g></g></g><g fill="#ff5757" fill-opacity="1"><g transform="translate(200.091708, 199.230544)"><g><path d="M 5.5625 -6.40625 L 5.5625 0 L 1.578125 0 L 1.578125 -17.765625 L 5.5625 -17.765625 L 5.5625 -8.5 L 5.609375 -8.5 L 9.3125 -13.3125 L 14.046875 -13.3125 L 9.03125 -7.46875 L 13.890625 0 L 9.390625 0 L 5.609375 -6.40625 Z M 5.5625 -6.40625 "/></g></g></g><g fill="#ff5757" fill-opacity="1"><g transform="translate(214.268762, 199.230544)"><g><path d="M 7.78125 -2.921875 C 8.300781 -2.921875 8.75 -3.019531 9.125 -3.21875 C 9.507812 -3.425781 9.867188 -3.742188 10.203125 -4.171875 L 14.28125 -4.171875 C 13.632812 -2.710938 12.738281 -1.578125 11.59375 -0.765625 C 10.457031 0.0351562 9.1875 0.4375 7.78125 0.4375 C 6.507812 0.4375 5.332031 0.125 4.25 -0.5 C 3.175781 -1.125 2.316406 -1.976562 1.671875 -3.0625 C 1.035156 -4.144531 0.71875 -5.332031 0.71875 -6.625 C 0.71875 -7.882812 1.03125 -9.0625 1.65625 -10.15625 C 2.28125 -11.257812 3.125 -12.140625 4.1875 -12.796875 C 5.25 -13.453125 6.421875 -13.78125 7.703125 -13.78125 C 9.015625 -13.78125 10.207031 -13.457031 11.28125 -12.8125 C 12.351562 -12.175781 13.195312 -11.304688 13.8125 -10.203125 C 14.425781 -9.097656 14.734375 -7.863281 14.734375 -6.5 C 14.734375 -6.113281 14.703125 -5.765625 14.640625 -5.453125 L 4.65625 -5.453125 C 4.769531 -4.691406 5.113281 -4.078125 5.6875 -3.609375 C 6.257812 -3.148438 6.957031 -2.921875 7.78125 -2.921875 Z M 7.703125 -10.421875 C 6.960938 -10.421875 6.316406 -10.210938 5.765625 -9.796875 C 5.210938 -9.390625 4.859375 -8.835938 4.703125 -8.140625 L 10.75 -8.140625 C 10.59375 -8.828125 10.238281 -9.378906 9.6875 -9.796875 C 9.132812 -10.210938 8.472656 -10.421875 7.703125 -10.421875 Z M 7.703125 -10.421875 "/></g></g></g><g fill="#ff5757" fill-opacity="1"><g transform="translate(229.765171, 199.230544)"><g/></g></g><g fill="#ff5757" fill-opacity="1"><g transform="translate(237.177544, 199.230544)"><g><path d="M 0.265625 -10.296875 L 0.265625 -13.3125 L 2.234375 -13.3125 L 2.234375 -17.765625 L 6.21875 -17.765625 L 6.21875 -13.3125 L 8.140625 -13.3125 L 8.140625 -10.296875 L 6.21875 -10.296875 L 6.21875 0 L 2.234375 0 L 2.234375 -10.296875 Z M 0.265625 -10.296875 "/></g></g></g><g fill="#ff5757" fill-opacity="1"><g transform="translate(245.597419, 199.230544)"><g><path d="M 7.984375 0.40625 C 6.640625 0.40625 5.425781 0.0976562 4.34375 -0.515625 C 3.257812 -1.128906 2.398438 -1.972656 1.765625 -3.046875 C 1.128906 -4.117188 0.8125 -5.328125 0.8125 -6.671875 C 0.8125 -8.015625 1.128906 -9.222656 1.765625 -10.296875 C 2.410156 -11.378906 3.28125 -12.222656 4.375 -12.828125 C 5.476562 -13.441406 6.679688 -13.75 7.984375 -13.75 C 9.316406 -13.75 10.53125 -13.441406 11.625 -12.828125 C 12.71875 -12.222656 13.582031 -11.378906 14.21875 -10.296875 C 14.851562 -9.222656 15.171875 -8.03125 15.171875 -6.71875 C 15.171875 -5.363281 14.851562 -4.140625 14.21875 -3.046875 C 13.582031 -1.960938 12.71875 -1.113281 11.625 -0.5 C 10.53125 0.101562 9.316406 0.40625 7.984375 0.40625 Z M 11.1875 -6.671875 C 11.1875 -7.265625 11.046875 -7.816406 10.765625 -8.328125 C 10.484375 -8.835938 10.097656 -9.25 9.609375 -9.5625 C 9.117188 -9.875 8.570312 -10.03125 7.96875 -10.03125 C 7.394531 -10.03125 6.863281 -9.878906 6.375 -9.578125 C 5.894531 -9.273438 5.507812 -8.863281 5.21875 -8.34375 C 4.9375 -7.820312 4.796875 -7.265625 4.796875 -6.671875 C 4.796875 -6.066406 4.9375 -5.503906 5.21875 -4.984375 C 5.5 -4.472656 5.882812 -4.066406 6.375 -3.765625 C 6.863281 -3.460938 7.398438 -3.3125 7.984375 -3.3125 C 8.597656 -3.3125 9.148438 -3.46875 9.640625 -3.78125 C 10.128906 -4.09375 10.507812 -4.503906 10.78125 -5.015625 C 11.050781 -5.523438 11.1875 -6.078125 11.1875 -6.671875 Z M 11.1875 -6.671875 "/></g></g></g><g fill="#ff5757" fill-opacity="1"><g transform="translate(261.573587, 199.230544)"><g/></g></g><g fill="#ff5757" fill-opacity="1"><g transform="translate(268.985959, 199.230544)"><g><path d="M 10.265625 0.359375 C 8.546875 0.359375 6.960938 -0.0507812 5.515625 -0.875 C 4.078125 -1.695312 2.9375 -2.820312 2.09375 -4.25 C 1.257812 -5.675781 0.84375 -7.242188 0.84375 -8.953125 C 0.84375 -10.691406 1.269531 -12.257812 2.125 -13.65625 C 2.976562 -15.050781 4.132812 -16.140625 5.59375 -16.921875 C 7.050781 -17.703125 8.632812 -18.09375 10.34375 -18.09375 C 11.65625 -18.09375 12.929688 -17.816406 14.171875 -17.265625 C 15.410156 -16.710938 16.476562 -15.957031 17.375 -15 C 18.269531 -14.039062 18.882812 -12.976562 19.21875 -11.8125 L 14.140625 -11.8125 C 13.722656 -12.539062 13.175781 -13.101562 12.5 -13.5 C 11.832031 -13.90625 11.070312 -14.109375 10.21875 -14.109375 C 9.289062 -14.109375 8.457031 -13.878906 7.71875 -13.421875 C 6.988281 -12.972656 6.414062 -12.351562 6 -11.5625 C 5.582031 -10.769531 5.375 -9.898438 5.375 -8.953125 C 5.375 -7.960938 5.570312 -7.0625 5.96875 -6.25 C 6.375 -5.445312 6.941406 -4.804688 7.671875 -4.328125 C 8.410156 -3.859375 9.269531 -3.625 10.25 -3.625 C 11.300781 -3.625 12.203125 -3.867188 12.953125 -4.359375 C 13.710938 -4.859375 14.226562 -5.566406 14.5 -6.484375 L 9.1875 -6.484375 L 9.1875 -10.109375 L 19.75 -10.109375 L 19.75 -9.09375 C 19.75 -7.457031 19.363281 -5.914062 18.59375 -4.46875 C 17.832031 -3.019531 16.734375 -1.851562 15.296875 -0.96875 C 13.867188 -0.0820312 12.191406 0.359375 10.265625 0.359375 Z M 10.265625 0.359375 "/></g></g></g><g fill="#ff5757" fill-opacity="1"><g transform="translate(289.471924, 199.230544)"><g><path d="M 7.984375 0.40625 C 6.640625 0.40625 5.425781 0.0976562 4.34375 -0.515625 C 3.257812 -1.128906 2.398438 -1.972656 1.765625 -3.046875 C 1.128906 -4.117188 0.8125 -5.328125 0.8125 -6.671875 C 0.8125 -8.015625 1.128906 -9.222656 1.765625 -10.296875 C 2.410156 -11.378906 3.28125 -12.222656 4.375 -12.828125 C 5.476562 -13.441406 6.679688 -13.75 7.984375 -13.75 C 9.316406 -13.75 10.53125 -13.441406 11.625 -12.828125 C 12.71875 -12.222656 13.582031 -11.378906 14.21875 -10.296875 C 14.851562 -9.222656 15.171875 -8.03125 15.171875 -6.71875 C 15.171875 -5.363281 14.851562 -4.140625 14.21875 -3.046875 C 13.582031 -1.960938 12.71875 -1.113281 11.625 -0.5 C 10.53125 0.101562 9.316406 0.40625 7.984375 0.40625 Z M 11.1875 -6.671875 C 11.1875 -7.265625 11.046875 -7.816406 10.765625 -8.328125 C 10.484375 -8.835938 10.097656 -9.25 9.609375 -9.5625 C 9.117188 -9.875 8.570312 -10.03125 7.96875 -10.03125 C 7.394531 -10.03125 6.863281 -9.878906 6.375 -9.578125 C 5.894531 -9.273438 5.507812 -8.863281 5.21875 -8.34375 C 4.9375 -7.820312 4.796875 -7.265625 4.796875 -6.671875 C 4.796875 -6.066406 4.9375 -5.503906 5.21875 -4.984375 C 5.5 -4.472656 5.882812 -4.066406 6.375 -3.765625 C 6.863281 -3.460938 7.398438 -3.3125 7.984375 -3.3125 C 8.597656 -3.3125 9.148438 -3.46875 9.640625 -3.78125 C 10.128906 -4.09375 10.507812 -4.503906 10.78125 -5.015625 C 11.050781 -5.523438 11.1875 -6.078125 11.1875 -6.671875 Z M 11.1875 -6.671875 "/></g></g></g></svg>